%TF.GenerationSoftware,KiCad,Pcbnew,(6.0.7)*%
%TF.CreationDate,2023-02-23T17:40:15+01:00*%
%TF.ProjectId,freqcount,66726571-636f-4756-9e74-2e6b69636164,rev?*%
%TF.SameCoordinates,PX640f3c0PY67de938*%
%TF.FileFunction,Legend,Top*%
%TF.FilePolarity,Positive*%
%FSLAX46Y46*%
G04 Gerber Fmt 4.6, Leading zero omitted, Abs format (unit mm)*
G04 Created by KiCad (PCBNEW (6.0.7)) date 2023-02-23 17:40:15*
%MOMM*%
%LPD*%
G01*
G04 APERTURE LIST*
%ADD10C,0.150000*%
%ADD11C,0.120000*%
G04 APERTURE END LIST*
D10*
%TO.C,QA1*%
X16796190Y19142381D02*
X16700952Y19190000D01*
X16605714Y19285239D01*
X16462857Y19428096D01*
X16367619Y19475715D01*
X16272380Y19475715D01*
X16320000Y19237620D02*
X16224761Y19285239D01*
X16129523Y19380477D01*
X16081904Y19570953D01*
X16081904Y19904286D01*
X16129523Y20094762D01*
X16224761Y20190000D01*
X16320000Y20237620D01*
X16510476Y20237620D01*
X16605714Y20190000D01*
X16700952Y20094762D01*
X16748571Y19904286D01*
X16748571Y19570953D01*
X16700952Y19380477D01*
X16605714Y19285239D01*
X16510476Y19237620D01*
X16320000Y19237620D01*
X17129523Y19523334D02*
X17605714Y19523334D01*
X17034285Y19237620D02*
X17367619Y20237620D01*
X17700952Y19237620D01*
X18558095Y19237620D02*
X17986666Y19237620D01*
X18272380Y19237620D02*
X18272380Y20237620D01*
X18177142Y20094762D01*
X18081904Y19999524D01*
X17986666Y19951905D01*
%TO.C,SW1*%
X36196666Y1595239D02*
X36339523Y1547620D01*
X36577619Y1547620D01*
X36672857Y1595239D01*
X36720476Y1642858D01*
X36768095Y1738096D01*
X36768095Y1833334D01*
X36720476Y1928572D01*
X36672857Y1976191D01*
X36577619Y2023810D01*
X36387142Y2071429D01*
X36291904Y2119048D01*
X36244285Y2166667D01*
X36196666Y2261905D01*
X36196666Y2357143D01*
X36244285Y2452381D01*
X36291904Y2500000D01*
X36387142Y2547620D01*
X36625238Y2547620D01*
X36768095Y2500000D01*
X37101428Y2547620D02*
X37339523Y1547620D01*
X37530000Y2261905D01*
X37720476Y1547620D01*
X37958571Y2547620D01*
X38863333Y1547620D02*
X38291904Y1547620D01*
X38577619Y1547620D02*
X38577619Y2547620D01*
X38482380Y2404762D01*
X38387142Y2309524D01*
X38291904Y2261905D01*
%TO.C,J3*%
X68386666Y19997620D02*
X68386666Y19283334D01*
X68339047Y19140477D01*
X68243809Y19045239D01*
X68100952Y18997620D01*
X68005714Y18997620D01*
X68767619Y19997620D02*
X69386666Y19997620D01*
X69053333Y19616667D01*
X69196190Y19616667D01*
X69291428Y19569048D01*
X69339047Y19521429D01*
X69386666Y19426191D01*
X69386666Y19188096D01*
X69339047Y19092858D01*
X69291428Y19045239D01*
X69196190Y18997620D01*
X68910476Y18997620D01*
X68815238Y19045239D01*
X68767619Y19092858D01*
%TO.C,Y1*%
X52713809Y22143810D02*
X52713809Y21667620D01*
X52380476Y22667620D02*
X52713809Y22143810D01*
X53047142Y22667620D01*
X53904285Y21667620D02*
X53332857Y21667620D01*
X53618571Y21667620D02*
X53618571Y22667620D01*
X53523333Y22524762D01*
X53428095Y22429524D01*
X53332857Y22381905D01*
%TO.C,U7*%
X44758095Y6567620D02*
X44758095Y5758096D01*
X44805714Y5662858D01*
X44853333Y5615239D01*
X44948571Y5567620D01*
X45139047Y5567620D01*
X45234285Y5615239D01*
X45281904Y5662858D01*
X45329523Y5758096D01*
X45329523Y6567620D01*
X45710476Y6567620D02*
X46377142Y6567620D01*
X45948571Y5567620D01*
%TO.C,U6*%
X29598095Y16727620D02*
X29598095Y15918096D01*
X29645714Y15822858D01*
X29693333Y15775239D01*
X29788571Y15727620D01*
X29979047Y15727620D01*
X30074285Y15775239D01*
X30121904Y15822858D01*
X30169523Y15918096D01*
X30169523Y16727620D01*
X31074285Y16727620D02*
X30883809Y16727620D01*
X30788571Y16680000D01*
X30740952Y16632381D01*
X30645714Y16489524D01*
X30598095Y16299048D01*
X30598095Y15918096D01*
X30645714Y15822858D01*
X30693333Y15775239D01*
X30788571Y15727620D01*
X30979047Y15727620D01*
X31074285Y15775239D01*
X31121904Y15822858D01*
X31169523Y15918096D01*
X31169523Y16156191D01*
X31121904Y16251429D01*
X31074285Y16299048D01*
X30979047Y16346667D01*
X30788571Y16346667D01*
X30693333Y16299048D01*
X30645714Y16251429D01*
X30598095Y16156191D01*
%TO.C,U5*%
X55908095Y9137620D02*
X55908095Y8328096D01*
X55955714Y8232858D01*
X56003333Y8185239D01*
X56098571Y8137620D01*
X56289047Y8137620D01*
X56384285Y8185239D01*
X56431904Y8232858D01*
X56479523Y8328096D01*
X56479523Y9137620D01*
X57431904Y9137620D02*
X56955714Y9137620D01*
X56908095Y8661429D01*
X56955714Y8709048D01*
X57050952Y8756667D01*
X57289047Y8756667D01*
X57384285Y8709048D01*
X57431904Y8661429D01*
X57479523Y8566191D01*
X57479523Y8328096D01*
X57431904Y8232858D01*
X57384285Y8185239D01*
X57289047Y8137620D01*
X57050952Y8137620D01*
X56955714Y8185239D01*
X56908095Y8232858D01*
%TO.C,U4*%
X27798095Y5777620D02*
X27798095Y4968096D01*
X27845714Y4872858D01*
X27893333Y4825239D01*
X27988571Y4777620D01*
X28179047Y4777620D01*
X28274285Y4825239D01*
X28321904Y4872858D01*
X28369523Y4968096D01*
X28369523Y5777620D01*
X29274285Y5444286D02*
X29274285Y4777620D01*
X29036190Y5825239D02*
X28798095Y5110953D01*
X29417142Y5110953D01*
%TO.C,U3*%
X19458095Y5637620D02*
X19458095Y4828096D01*
X19505714Y4732858D01*
X19553333Y4685239D01*
X19648571Y4637620D01*
X19839047Y4637620D01*
X19934285Y4685239D01*
X19981904Y4732858D01*
X20029523Y4828096D01*
X20029523Y5637620D01*
X20410476Y5637620D02*
X21029523Y5637620D01*
X20696190Y5256667D01*
X20839047Y5256667D01*
X20934285Y5209048D01*
X20981904Y5161429D01*
X21029523Y5066191D01*
X21029523Y4828096D01*
X20981904Y4732858D01*
X20934285Y4685239D01*
X20839047Y4637620D01*
X20553333Y4637620D01*
X20458095Y4685239D01*
X20410476Y4732858D01*
%TO.C,U2*%
X12278095Y5637620D02*
X12278095Y4828096D01*
X12325714Y4732858D01*
X12373333Y4685239D01*
X12468571Y4637620D01*
X12659047Y4637620D01*
X12754285Y4685239D01*
X12801904Y4732858D01*
X12849523Y4828096D01*
X12849523Y5637620D01*
X13278095Y5542381D02*
X13325714Y5590000D01*
X13420952Y5637620D01*
X13659047Y5637620D01*
X13754285Y5590000D01*
X13801904Y5542381D01*
X13849523Y5447143D01*
X13849523Y5351905D01*
X13801904Y5209048D01*
X13230476Y4637620D01*
X13849523Y4637620D01*
%TO.C,U1*%
X4988095Y5697620D02*
X4988095Y4888096D01*
X5035714Y4792858D01*
X5083333Y4745239D01*
X5178571Y4697620D01*
X5369047Y4697620D01*
X5464285Y4745239D01*
X5511904Y4792858D01*
X5559523Y4888096D01*
X5559523Y5697620D01*
X6559523Y4697620D02*
X5988095Y4697620D01*
X6273809Y4697620D02*
X6273809Y5697620D01*
X6178571Y5554762D01*
X6083333Y5459524D01*
X5988095Y5411905D01*
%TO.C,R2*%
X64813333Y5257620D02*
X64480000Y5733810D01*
X64241904Y5257620D02*
X64241904Y6257620D01*
X64622857Y6257620D01*
X64718095Y6210000D01*
X64765714Y6162381D01*
X64813333Y6067143D01*
X64813333Y5924286D01*
X64765714Y5829048D01*
X64718095Y5781429D01*
X64622857Y5733810D01*
X64241904Y5733810D01*
X65194285Y6162381D02*
X65241904Y6210000D01*
X65337142Y6257620D01*
X65575238Y6257620D01*
X65670476Y6210000D01*
X65718095Y6162381D01*
X65765714Y6067143D01*
X65765714Y5971905D01*
X65718095Y5829048D01*
X65146666Y5257620D01*
X65765714Y5257620D01*
%TO.C,R1*%
X41023333Y22137620D02*
X40690000Y22613810D01*
X40451904Y22137620D02*
X40451904Y23137620D01*
X40832857Y23137620D01*
X40928095Y23090000D01*
X40975714Y23042381D01*
X41023333Y22947143D01*
X41023333Y22804286D01*
X40975714Y22709048D01*
X40928095Y22661429D01*
X40832857Y22613810D01*
X40451904Y22613810D01*
X41975714Y22137620D02*
X41404285Y22137620D01*
X41690000Y22137620D02*
X41690000Y23137620D01*
X41594761Y22994762D01*
X41499523Y22899524D01*
X41404285Y22851905D01*
%TO.C,J2*%
X32206666Y28077620D02*
X32206666Y27363334D01*
X32159047Y27220477D01*
X32063809Y27125239D01*
X31920952Y27077620D01*
X31825714Y27077620D01*
X32635238Y27982381D02*
X32682857Y28030000D01*
X32778095Y28077620D01*
X33016190Y28077620D01*
X33111428Y28030000D01*
X33159047Y27982381D01*
X33206666Y27887143D01*
X33206666Y27791905D01*
X33159047Y27649048D01*
X32587619Y27077620D01*
X33206666Y27077620D01*
%TO.C,J1*%
X5536666Y24387620D02*
X5536666Y23673334D01*
X5489047Y23530477D01*
X5393809Y23435239D01*
X5250952Y23387620D01*
X5155714Y23387620D01*
X6536666Y23387620D02*
X5965238Y23387620D01*
X6250952Y23387620D02*
X6250952Y24387620D01*
X6155714Y24244762D01*
X6060476Y24149524D01*
X5965238Y24101905D01*
%TO.C,D2*%
X40101904Y17317620D02*
X40101904Y18317620D01*
X40340000Y18317620D01*
X40482857Y18270000D01*
X40578095Y18174762D01*
X40625714Y18079524D01*
X40673333Y17889048D01*
X40673333Y17746191D01*
X40625714Y17555715D01*
X40578095Y17460477D01*
X40482857Y17365239D01*
X40340000Y17317620D01*
X40101904Y17317620D01*
X41054285Y18222381D02*
X41101904Y18270000D01*
X41197142Y18317620D01*
X41435238Y18317620D01*
X41530476Y18270000D01*
X41578095Y18222381D01*
X41625714Y18127143D01*
X41625714Y18031905D01*
X41578095Y17889048D01*
X41006666Y17317620D01*
X41625714Y17317620D01*
%TO.C,D1*%
X40191904Y14217620D02*
X40191904Y15217620D01*
X40430000Y15217620D01*
X40572857Y15170000D01*
X40668095Y15074762D01*
X40715714Y14979524D01*
X40763333Y14789048D01*
X40763333Y14646191D01*
X40715714Y14455715D01*
X40668095Y14360477D01*
X40572857Y14265239D01*
X40430000Y14217620D01*
X40191904Y14217620D01*
X41715714Y14217620D02*
X41144285Y14217620D01*
X41430000Y14217620D02*
X41430000Y15217620D01*
X41334761Y15074762D01*
X41239523Y14979524D01*
X41144285Y14931905D01*
%TO.C,C2*%
X51593333Y14432858D02*
X51545714Y14385239D01*
X51402857Y14337620D01*
X51307619Y14337620D01*
X51164761Y14385239D01*
X51069523Y14480477D01*
X51021904Y14575715D01*
X50974285Y14766191D01*
X50974285Y14909048D01*
X51021904Y15099524D01*
X51069523Y15194762D01*
X51164761Y15290000D01*
X51307619Y15337620D01*
X51402857Y15337620D01*
X51545714Y15290000D01*
X51593333Y15242381D01*
X51974285Y15242381D02*
X52021904Y15290000D01*
X52117142Y15337620D01*
X52355238Y15337620D01*
X52450476Y15290000D01*
X52498095Y15242381D01*
X52545714Y15147143D01*
X52545714Y15051905D01*
X52498095Y14909048D01*
X51926666Y14337620D01*
X52545714Y14337620D01*
%TO.C,C1*%
X57233333Y19962858D02*
X57185714Y19915239D01*
X57042857Y19867620D01*
X56947619Y19867620D01*
X56804761Y19915239D01*
X56709523Y20010477D01*
X56661904Y20105715D01*
X56614285Y20296191D01*
X56614285Y20439048D01*
X56661904Y20629524D01*
X56709523Y20724762D01*
X56804761Y20820000D01*
X56947619Y20867620D01*
X57042857Y20867620D01*
X57185714Y20820000D01*
X57233333Y20772381D01*
X58185714Y19867620D02*
X57614285Y19867620D01*
X57900000Y19867620D02*
X57900000Y20867620D01*
X57804761Y20724762D01*
X57709523Y20629524D01*
X57614285Y20581905D01*
D11*
%TO.C,QA1*%
X13756000Y21796000D02*
X23916000Y21796000D01*
X23916000Y21796000D02*
X23916000Y15446000D01*
X23916000Y15446000D02*
X13756000Y15446000D01*
X13756000Y15446000D02*
X13756000Y21796000D01*
%TO.C,SW1*%
X33054000Y9285000D02*
X34740000Y9285000D01*
X34740000Y4734000D02*
X34740000Y3299000D01*
X40260000Y4734000D02*
X40260000Y3299000D01*
X34740000Y3299000D02*
X40260000Y3299000D01*
X34740000Y10101000D02*
X40260000Y10101000D01*
X34740000Y10101000D02*
X34740000Y9285000D01*
X40260000Y10101000D02*
X40260000Y8666000D01*
%TO.C,J3*%
X67130000Y5210000D02*
X71150000Y5210000D01*
X67130000Y17930000D02*
X67130000Y5210000D01*
X69650000Y17930000D02*
X69650000Y16930000D01*
X67630000Y17430000D02*
X68840000Y17430000D01*
X69650000Y5210000D02*
X69650000Y6210000D01*
X68840000Y5710000D02*
X67630000Y5710000D01*
X69650000Y16930000D02*
X71150000Y16930000D01*
X68840000Y17430000D02*
X68840000Y17930000D01*
X67630000Y5710000D02*
X67630000Y17430000D01*
X69650000Y6210000D02*
X71150000Y6210000D01*
X71150000Y17930000D02*
X67130000Y17930000D01*
X68840000Y5210000D02*
X68840000Y5710000D01*
X68950000Y4910000D02*
X71450000Y4910000D01*
X71150000Y5210000D02*
X71150000Y17930000D01*
X71450000Y4910000D02*
X71450000Y7410000D01*
%TO.C,Y1*%
X55890000Y19720000D02*
X55890000Y18920000D01*
X50190000Y18920000D02*
X50490000Y18920000D01*
X50490000Y18920000D02*
X50490000Y19720000D01*
X52490000Y17520000D02*
X52490000Y17280000D01*
X52490000Y21120000D02*
X53890000Y21120000D01*
X53890000Y17520000D02*
X52490000Y17520000D01*
%TO.C,U7*%
X46690000Y10230000D02*
X47490000Y10230000D01*
X46690000Y7110000D02*
X48490000Y7110000D01*
X46690000Y7110000D02*
X45890000Y7110000D01*
X46690000Y10230000D02*
X45890000Y10230000D01*
%TO.C,U6*%
X31665000Y15990000D02*
X31665000Y18190000D01*
X31665000Y15990000D02*
X31665000Y12390000D01*
X38435000Y15990000D02*
X38435000Y18190000D01*
X38435000Y15990000D02*
X38435000Y13790000D01*
D10*
%TO.C,U5*%
X55145000Y14345000D02*
X55145000Y14020000D01*
X62395000Y14345000D02*
X62170000Y14345000D01*
X62395000Y14345000D02*
X62395000Y14020000D01*
X62395000Y7095000D02*
X62395000Y7420000D01*
X62395000Y7095000D02*
X62070000Y7095000D01*
X55145000Y7095000D02*
X55470000Y7095000D01*
X55145000Y7095000D02*
X55145000Y7420000D01*
X55145000Y14345000D02*
X55470000Y14345000D01*
X62170000Y14345000D02*
X62170000Y15770000D01*
%TO.C,U4*%
X31275000Y4275000D02*
X31275000Y8925000D01*
X31275000Y8925000D02*
X31250000Y8925000D01*
X31275000Y4275000D02*
X31250000Y4275000D01*
X25750000Y8900000D02*
X25850000Y8900000D01*
X25750000Y3200000D02*
X25750000Y8900000D01*
%TO.C,U3*%
X23615000Y4235000D02*
X23615000Y8885000D01*
X23615000Y8885000D02*
X23590000Y8885000D01*
X23615000Y4235000D02*
X23590000Y4235000D01*
X18090000Y8860000D02*
X18190000Y8860000D01*
X18090000Y3160000D02*
X18090000Y8860000D01*
%TO.C,U2*%
X16735000Y4225000D02*
X16735000Y8875000D01*
X16735000Y8875000D02*
X16710000Y8875000D01*
X16735000Y4225000D02*
X16710000Y4225000D01*
X11210000Y8850000D02*
X11310000Y8850000D01*
X11210000Y3150000D02*
X11210000Y8850000D01*
%TO.C,U1*%
X9385000Y4245000D02*
X9385000Y8895000D01*
X9385000Y8895000D02*
X9360000Y8895000D01*
X9385000Y4245000D02*
X9360000Y4245000D01*
X3860000Y8870000D02*
X3960000Y8870000D01*
X3860000Y3170000D02*
X3860000Y8870000D01*
D11*
%TO.C,R2*%
X64937500Y8152258D02*
X64937500Y7677742D01*
X65982500Y8152258D02*
X65982500Y7677742D01*
%TO.C,R1*%
X41242258Y21452500D02*
X40767742Y21452500D01*
X41242258Y20407500D02*
X40767742Y20407500D01*
%TO.C,J2*%
X33640000Y22830000D02*
X33640000Y22330000D01*
X31440000Y22330000D02*
X31440000Y22830000D01*
X35990000Y22330000D02*
X35990000Y25830000D01*
X29430000Y26740000D02*
X28180000Y26740000D01*
X28480000Y25130000D02*
X29090000Y25130000D01*
X31040000Y25830000D02*
X29090000Y25830000D01*
X28180000Y26740000D02*
X28180000Y25490000D01*
X31440000Y22830000D02*
X31640000Y22830000D01*
X30240000Y26440000D02*
X30240000Y26640000D01*
X36600000Y26440000D02*
X28480000Y26440000D01*
X35990000Y25830000D02*
X34040000Y25830000D01*
X34040000Y25830000D02*
X34040000Y26440000D01*
X29090000Y25830000D02*
X29090000Y22330000D01*
X29940000Y26640000D02*
X29940000Y26440000D01*
X28480000Y23830000D02*
X29090000Y23830000D01*
X30240000Y26640000D02*
X29940000Y26640000D01*
X30240000Y26540000D02*
X29940000Y26540000D01*
X33540000Y22330000D02*
X33540000Y22830000D01*
X36600000Y23830000D02*
X35990000Y23830000D01*
X31640000Y22830000D02*
X31640000Y22330000D01*
X28480000Y21720000D02*
X36600000Y21720000D01*
X36600000Y21720000D02*
X36600000Y26440000D01*
X36600000Y25130000D02*
X35990000Y25130000D01*
X29090000Y22330000D02*
X35990000Y22330000D01*
X28480000Y26440000D02*
X28480000Y21720000D01*
X33440000Y22830000D02*
X33640000Y22830000D01*
X31540000Y22330000D02*
X31540000Y22830000D01*
X33440000Y22330000D02*
X33440000Y22830000D01*
X31040000Y26440000D02*
X31040000Y25830000D01*
%TO.C,J1*%
X3260000Y16980000D02*
X3870000Y16980000D01*
X7370000Y19380000D02*
X6870000Y19380000D01*
X7370000Y17480000D02*
X6870000Y17480000D01*
X6870000Y19380000D02*
X6870000Y19580000D01*
X3260000Y14420000D02*
X7980000Y14420000D01*
X7370000Y15030000D02*
X7370000Y21930000D01*
X4570000Y22540000D02*
X4570000Y21930000D01*
X7980000Y22540000D02*
X3260000Y22540000D01*
X7980000Y14420000D02*
X7980000Y22540000D01*
X6870000Y17580000D02*
X7370000Y17580000D01*
X5870000Y22540000D02*
X5870000Y21930000D01*
X7370000Y19480000D02*
X6870000Y19480000D01*
X3160000Y16180000D02*
X3160000Y15880000D01*
X3060000Y16180000D02*
X3060000Y15880000D01*
X5870000Y14420000D02*
X5870000Y15030000D01*
X3060000Y15880000D02*
X3260000Y15880000D01*
X3870000Y15030000D02*
X7370000Y15030000D01*
X3870000Y19980000D02*
X3260000Y19980000D01*
X3870000Y21930000D02*
X3870000Y19980000D01*
X3260000Y22540000D02*
X3260000Y14420000D01*
X3260000Y16180000D02*
X3060000Y16180000D01*
X6870000Y17380000D02*
X6870000Y17580000D01*
X2960000Y14120000D02*
X4210000Y14120000D01*
X3870000Y16980000D02*
X3870000Y15030000D01*
X4570000Y14420000D02*
X4570000Y15030000D01*
X2960000Y15370000D02*
X2960000Y14120000D01*
X7370000Y21930000D02*
X3870000Y21930000D01*
X7370000Y17380000D02*
X6870000Y17380000D01*
X6870000Y19580000D02*
X7370000Y19580000D01*
%TO.C,D2*%
X41990000Y18610000D02*
X41990000Y16910000D01*
X41990000Y16910000D02*
X44540000Y16910000D01*
X41990000Y18610000D02*
X44540000Y18610000D01*
%TO.C,D1*%
X42040000Y15540000D02*
X42040000Y13840000D01*
X42040000Y13840000D02*
X44590000Y13840000D01*
X42040000Y15540000D02*
X44590000Y15540000D01*
%TO.C,C2*%
X51900580Y16730000D02*
X51619420Y16730000D01*
X51900580Y15710000D02*
X51619420Y15710000D01*
%TO.C,C1*%
X57930000Y17954420D02*
X57930000Y18235580D01*
X56910000Y17954420D02*
X56910000Y18235580D01*
%TD*%
M02*
