%TF.GenerationSoftware,KiCad,Pcbnew,(6.0.7)*%
%TF.CreationDate,2023-02-24T11:48:17+01:00*%
%TF.ProjectId,freqcount,66726571-636f-4756-9e74-2e6b69636164,rev?*%
%TF.SameCoordinates,PX640f3c0PY67de938*%
%TF.FileFunction,Copper,L2,Bot*%
%TF.FilePolarity,Positive*%
%FSLAX46Y46*%
G04 Gerber Fmt 4.6, Leading zero omitted, Abs format (unit mm)*
G04 Created by KiCad (PCBNEW (6.0.7)) date 2023-02-24 11:48:17*
%MOMM*%
%LPD*%
G01*
G04 APERTURE LIST*
G04 Aperture macros list*
%AMRoundRect*
0 Rectangle with rounded corners*
0 $1 Rounding radius*
0 $2 $3 $4 $5 $6 $7 $8 $9 X,Y pos of 4 corners*
0 Add a 4 corners polygon primitive as box body*
4,1,4,$2,$3,$4,$5,$6,$7,$8,$9,$2,$3,0*
0 Add four circle primitives for the rounded corners*
1,1,$1+$1,$2,$3*
1,1,$1+$1,$4,$5*
1,1,$1+$1,$6,$7*
1,1,$1+$1,$8,$9*
0 Add four rect primitives between the rounded corners*
20,1,$1+$1,$2,$3,$4,$5,0*
20,1,$1+$1,$4,$5,$6,$7,0*
20,1,$1+$1,$6,$7,$8,$9,0*
20,1,$1+$1,$8,$9,$2,$3,0*%
G04 Aperture macros list end*
%TA.AperFunction,ComponentPad*%
%ADD10RoundRect,0.200000X-0.200000X-0.450000X0.200000X-0.450000X0.200000X0.450000X-0.200000X0.450000X0*%
%TD*%
%TA.AperFunction,ComponentPad*%
%ADD11O,0.800000X1.300000*%
%TD*%
%TA.AperFunction,ComponentPad*%
%ADD12RoundRect,0.250000X0.625000X-0.350000X0.625000X0.350000X-0.625000X0.350000X-0.625000X-0.350000X0*%
%TD*%
%TA.AperFunction,ComponentPad*%
%ADD13O,1.750000X1.200000*%
%TD*%
%TA.AperFunction,ComponentPad*%
%ADD14RoundRect,0.250000X-0.350000X-0.625000X0.350000X-0.625000X0.350000X0.625000X-0.350000X0.625000X0*%
%TD*%
%TA.AperFunction,ComponentPad*%
%ADD15O,1.200000X1.750000*%
%TD*%
%TA.AperFunction,ComponentPad*%
%ADD16RoundRect,0.250000X0.725000X-0.600000X0.725000X0.600000X-0.725000X0.600000X-0.725000X-0.600000X0*%
%TD*%
%TA.AperFunction,ComponentPad*%
%ADD17O,1.950000X1.700000*%
%TD*%
%TA.AperFunction,ViaPad*%
%ADD18C,0.800000*%
%TD*%
%TA.AperFunction,ViaPad*%
%ADD19C,4.000000*%
%TD*%
%TA.AperFunction,Conductor*%
%ADD20C,0.250000*%
%TD*%
G04 APERTURE END LIST*
D10*
%TO.P,J4,1,Pin_1*%
%TO.N,+5V*%
X56060000Y2145000D03*
D11*
%TO.P,J4,2,Pin_2*%
%TO.N,Net-(U5-Pad15)*%
X57310000Y2145000D03*
%TO.P,J4,3,Pin_3*%
%TO.N,GND*%
X58560000Y2145000D03*
%TO.P,J4,4,Pin_4*%
%TO.N,Net-(U5-Pad16)*%
X59810000Y2145000D03*
%TO.P,J4,5,Pin_5*%
%TO.N,Net-(U5-Pad17)*%
X61060000Y2145000D03*
%TO.P,J4,6,Pin_6*%
%TO.N,/Reset*%
X62310000Y2145000D03*
%TD*%
D12*
%TO.P,J1,1,Pin_1*%
%TO.N,+5V*%
X5070000Y16480000D03*
D13*
%TO.P,J1,2,Pin_2*%
%TO.N,Net-(J1-Pad2)*%
X5070000Y18480000D03*
%TO.P,J1,3,Pin_3*%
%TO.N,GND*%
X5070000Y20480000D03*
%TD*%
D14*
%TO.P,J2,1,Pin_1*%
%TO.N,+5V*%
X30540000Y24630000D03*
D15*
%TO.P,J2,2,Pin_2*%
%TO.N,Net-(J2-Pad2)*%
X32540000Y24630000D03*
%TO.P,J2,3,Pin_3*%
%TO.N,GND*%
X34540000Y24630000D03*
%TD*%
D16*
%TO.P,J3,1,Pin_1*%
%TO.N,+5V*%
X68840000Y7820000D03*
D17*
%TO.P,J3,2,Pin_2*%
%TO.N,Net-(U5-Pad30)*%
X68840000Y10320000D03*
%TO.P,J3,3,Pin_3*%
%TO.N,Net-(U5-Pad31)*%
X68840000Y12820000D03*
%TO.P,J3,4,Pin_4*%
%TO.N,GND*%
X68840000Y15320000D03*
%TD*%
D18*
%TO.N,Net-(U5-Pad17)*%
X54680000Y5605000D03*
%TO.N,/Reset*%
X66270000Y8705000D03*
%TO.N,Net-(U5-Pad16)*%
X59770000Y2985500D03*
%TO.N,GND*%
X58500000Y2935000D03*
%TO.N,Net-(U5-Pad15)*%
X51190000Y2085000D03*
%TO.N,Net-(U5-Pad16)*%
X51860000Y5185000D03*
%TO.N,Net-(U5-Pad15)*%
X50380000Y5315000D03*
D19*
%TO.N,GND*%
X3710000Y26390000D03*
X71060000Y2660000D03*
D18*
X12480000Y2510000D03*
X19280000Y2420000D03*
X13790000Y15050000D03*
X13000000Y10610000D03*
X26950000Y4860000D03*
X20750000Y8080000D03*
X59700000Y4915000D03*
X4990000Y2340000D03*
X5710000Y10920000D03*
X27600000Y8290000D03*
X38760000Y12970000D03*
X47120000Y10510000D03*
%TO.N,Net-(J2-Pad2)*%
X31350000Y22790000D03*
X29660000Y12990000D03*
%TO.N,GAU*%
X63590000Y15360000D03*
X33354282Y15458404D03*
%TO.N,GBL*%
X35385451Y15739951D03*
X61410000Y16890000D03*
%TO.N,Net-(U5-Pad12)*%
X52000000Y10460000D03*
X36640000Y20580000D03*
%TO.N,Net-(U5-Pad13)*%
X52260000Y9230000D03*
X37330000Y17080000D03*
%TO.N,Net-(U5-Pad23)*%
X59450000Y8040000D03*
X32760000Y20420000D03*
%TO.N,Net-(U5-Pad24)*%
X33410000Y17410000D03*
X62830000Y6040000D03*
%TO.N,Net-(U5-Pad25)*%
X59520000Y9210000D03*
X34070000Y20510000D03*
%TO.N,Net-(U5-Pad26)*%
X34740000Y17410000D03*
X60220000Y10030000D03*
%TO.N,Net-(U5-Pad27)*%
X35350000Y20630000D03*
X59894500Y11840000D03*
%TO.N,Net-(U5-Pad28)*%
X36030000Y17160000D03*
X61484101Y11154101D03*
%TO.N,GAL*%
X33150000Y14480000D03*
X64595000Y13825000D03*
%TO.N,Net-(D1-Pad2)*%
X42970000Y6200000D03*
X50090000Y8700000D03*
%TD*%
D20*
%TO.N,Net-(U5-Pad17)*%
X58613909Y4110000D02*
X56175000Y4110000D01*
X56175000Y4110000D02*
X54680000Y5605000D01*
X59275850Y3820851D02*
X58986701Y4110000D01*
X60284149Y3820851D02*
X59275850Y3820851D01*
X58986701Y4110000D02*
X58613909Y4110000D01*
X61060000Y3045000D02*
X60284149Y3820851D01*
X61060000Y2145000D02*
X61060000Y3045000D01*
%TO.N,Net-(U5-Pad16)*%
X59474805Y2985500D02*
X59770000Y2985500D01*
X58800305Y3660000D02*
X59474805Y2985500D01*
X51860000Y5185000D02*
X53385000Y3660000D01*
X53385000Y3660000D02*
X58800305Y3660000D01*
%TO.N,Net-(U5-Pad15)*%
X50380000Y2895000D02*
X51190000Y2085000D01*
X50380000Y5315000D02*
X50380000Y2895000D01*
%TO.N,/Reset*%
X66270000Y6105000D02*
X62310000Y2145000D01*
X66270000Y8705000D02*
X66270000Y6105000D01*
%TO.N,GND*%
X58500000Y2205000D02*
X58560000Y2145000D01*
X58500000Y2935000D02*
X58500000Y2205000D01*
%TO.N,Net-(J2-Pad2)*%
X31350000Y22320000D02*
X29660000Y20630000D01*
X29660000Y20630000D02*
X29660000Y12990000D01*
X31350000Y22790000D02*
X31350000Y22320000D01*
%TO.N,GAU*%
X33875000Y14135000D02*
X31060000Y11320000D01*
X33354282Y15458404D02*
X33875000Y14937686D01*
X63030000Y14800000D02*
X63590000Y15360000D01*
X48710000Y27360000D02*
X61270000Y14800000D01*
X28020000Y12260000D02*
X28020000Y26436396D01*
X33875000Y14937686D02*
X33875000Y14135000D01*
X28020000Y26436396D02*
X28943604Y27360000D01*
X31060000Y11320000D02*
X28960000Y11320000D01*
X28943604Y27360000D02*
X48710000Y27360000D01*
X28960000Y11320000D02*
X28020000Y12260000D01*
X61270000Y14800000D02*
X63030000Y14800000D01*
%TO.N,GBL*%
X27040000Y26729188D02*
X28570812Y28260000D01*
X50040000Y28260000D02*
X61410000Y16890000D01*
X31432792Y10420000D02*
X28587208Y10420000D01*
X35385451Y15739951D02*
X35385451Y14372659D01*
X35385451Y14372659D02*
X31432792Y10420000D01*
X28587208Y10420000D02*
X27040000Y11967208D01*
X28570812Y28260000D02*
X50040000Y28260000D01*
X27040000Y11967208D02*
X27040000Y26729188D01*
%TO.N,Net-(U5-Pad12)*%
X36640000Y20580000D02*
X41880000Y20580000D01*
X41880000Y20580000D02*
X52000000Y10460000D01*
%TO.N,Net-(U5-Pad13)*%
X52260000Y9230000D02*
X52204695Y9230000D01*
X44354695Y17080000D02*
X37330000Y17080000D01*
X52204695Y9230000D02*
X44354695Y17080000D01*
%TO.N,Net-(U5-Pad23)*%
X49325000Y21355000D02*
X57440000Y13240000D01*
X32760000Y20420000D02*
X33695000Y21355000D01*
X57440000Y13240000D02*
X57440000Y8710000D01*
X58110000Y8040000D02*
X59450000Y8040000D01*
X57440000Y8710000D02*
X58110000Y8040000D01*
X33695000Y21355000D02*
X49325000Y21355000D01*
%TO.N,Net-(U5-Pad24)*%
X29160000Y11830000D02*
X28580000Y12410000D01*
X31670000Y17410000D02*
X30460000Y16200000D01*
X62830000Y11469903D02*
X62830000Y6040000D01*
X28580000Y26360000D02*
X29130000Y26910000D01*
X30460000Y12240000D02*
X30050000Y11830000D01*
X28580000Y12410000D02*
X28580000Y26360000D01*
X47389903Y26910000D02*
X62830000Y11469903D01*
X30460000Y16200000D02*
X30460000Y12240000D01*
X29130000Y26910000D02*
X47389903Y26910000D01*
X33410000Y17410000D02*
X31670000Y17410000D01*
X30050000Y11830000D02*
X29160000Y11830000D01*
%TO.N,Net-(U5-Pad25)*%
X57930000Y10800000D02*
X59520000Y9210000D01*
X49266396Y22050000D02*
X57930000Y13386396D01*
X31690000Y19900000D02*
X31690000Y20375305D01*
X31895000Y19695000D02*
X31690000Y19900000D01*
X57930000Y13386396D02*
X57930000Y10800000D01*
X33255000Y19695000D02*
X31895000Y19695000D01*
X34070000Y20510000D02*
X33255000Y19695000D01*
X33364695Y22050000D02*
X49266396Y22050000D01*
X31690000Y20375305D02*
X33364695Y22050000D01*
%TO.N,Net-(U5-Pad26)*%
X50850000Y8900000D02*
X50850000Y8965305D01*
X60220000Y10030000D02*
X60220000Y10915305D01*
X43925305Y15890000D02*
X36260000Y15890000D01*
X50850000Y8965305D02*
X43925305Y15890000D01*
X52885000Y6865000D02*
X50850000Y8900000D01*
X36260000Y15890000D02*
X34740000Y17410000D01*
X62280000Y11383507D02*
X62280000Y9208299D01*
X59936701Y6865000D02*
X52885000Y6865000D01*
X61183796Y11879101D02*
X61784406Y11879101D01*
X62280000Y9208299D02*
X59936701Y6865000D01*
X61784406Y11879101D02*
X62280000Y11383507D01*
X60220000Y10915305D02*
X61183796Y11879101D01*
%TO.N,Net-(U5-Pad27)*%
X33298299Y22620000D02*
X30960000Y20281701D01*
X30960000Y20281701D02*
X30960000Y19800000D01*
X31515000Y19245000D02*
X33965000Y19245000D01*
X59894500Y11840000D02*
X59894500Y12058292D01*
X59894500Y12058292D02*
X49332792Y22620000D01*
X30960000Y19800000D02*
X31515000Y19245000D01*
X49332792Y22620000D02*
X33298299Y22620000D01*
X33965000Y19245000D02*
X35350000Y20630000D01*
%TO.N,Net-(U5-Pad28)*%
X53075000Y7315000D02*
X52310000Y8080000D01*
X61300000Y10970000D02*
X61300000Y8864695D01*
X61300000Y8864695D02*
X59750305Y7315000D01*
X52310000Y8154695D02*
X44124695Y16340000D01*
X59750305Y7315000D02*
X53075000Y7315000D01*
X36850000Y16340000D02*
X36030000Y17160000D01*
X61484101Y11154101D02*
X61300000Y10970000D01*
X52310000Y8080000D02*
X52310000Y8154695D01*
X44124695Y16340000D02*
X36850000Y16340000D01*
%TO.N,GAL*%
X27520000Y12123604D02*
X27520000Y26572792D01*
X33150000Y14480000D02*
X32629282Y15000718D01*
X61905000Y16085000D02*
X63890305Y16085000D01*
X33090573Y16220000D02*
X33617991Y16220000D01*
X64595000Y15380305D02*
X64595000Y13825000D01*
X63890305Y16085000D02*
X64595000Y15380305D01*
X27520000Y26572792D02*
X28757208Y27810000D01*
X49050000Y27810000D02*
X61340000Y15520000D01*
X34370000Y15467991D02*
X34370000Y13993604D01*
X61340000Y15520000D02*
X61905000Y16085000D01*
X32629282Y15000718D02*
X32629282Y15758709D01*
X32629282Y15758709D02*
X33090573Y16220000D01*
X34370000Y13993604D02*
X31246396Y10870000D01*
X31246396Y10870000D02*
X28773604Y10870000D01*
X28773604Y10870000D02*
X27520000Y12123604D01*
X28757208Y27810000D02*
X49050000Y27810000D01*
X33617991Y16220000D02*
X34370000Y15467991D01*
%TO.N,Net-(D1-Pad2)*%
X50090000Y7430000D02*
X50090000Y8700000D01*
X42970000Y6200000D02*
X48860000Y6200000D01*
X48860000Y6200000D02*
X50090000Y7430000D01*
%TD*%
%TA.AperFunction,Conductor*%
%TO.N,GND*%
G36*
X28204576Y28991498D02*
G01*
X28251069Y28937842D01*
X28261173Y28867568D01*
X28231679Y28802988D01*
X28200597Y28777048D01*
X28179450Y28764542D01*
X28165129Y28750221D01*
X28150096Y28737381D01*
X28133705Y28725472D01*
X28125029Y28714984D01*
X28105514Y28691395D01*
X28097524Y28682616D01*
X26647747Y27232840D01*
X26639461Y27225300D01*
X26632982Y27221188D01*
X26627557Y27215411D01*
X26586357Y27171537D01*
X26583602Y27168695D01*
X26563865Y27148958D01*
X26561385Y27145761D01*
X26553682Y27136741D01*
X26523414Y27104509D01*
X26519595Y27097563D01*
X26519593Y27097560D01*
X26513652Y27086754D01*
X26502801Y27070235D01*
X26490386Y27054229D01*
X26487241Y27046960D01*
X26487238Y27046956D01*
X26472826Y27013651D01*
X26467609Y27003001D01*
X26446305Y26964248D01*
X26444334Y26956573D01*
X26444334Y26956572D01*
X26441267Y26944626D01*
X26434863Y26925922D01*
X26426819Y26907333D01*
X26425580Y26899510D01*
X26425577Y26899500D01*
X26419901Y26863664D01*
X26417495Y26852044D01*
X26406500Y26809218D01*
X26406500Y26788964D01*
X26404949Y26769254D01*
X26401780Y26749245D01*
X26402526Y26741353D01*
X26405941Y26705227D01*
X26406500Y26693369D01*
X26406500Y12045975D01*
X26405973Y12034792D01*
X26404298Y12027299D01*
X26404547Y12019373D01*
X26404547Y12019372D01*
X26406438Y11959222D01*
X26406500Y11955263D01*
X26406500Y11927352D01*
X26406997Y11923418D01*
X26406997Y11923417D01*
X26407005Y11923352D01*
X26407938Y11911515D01*
X26409327Y11867319D01*
X26413069Y11854440D01*
X26414978Y11847869D01*
X26418987Y11828508D01*
X26421526Y11808411D01*
X26424445Y11801040D01*
X26424445Y11801038D01*
X26437804Y11767296D01*
X26441649Y11756066D01*
X26453982Y11713615D01*
X26458015Y11706796D01*
X26458017Y11706791D01*
X26464293Y11696180D01*
X26472988Y11678432D01*
X26480448Y11659591D01*
X26485110Y11653175D01*
X26485110Y11653174D01*
X26506436Y11623821D01*
X26512952Y11613901D01*
X26521901Y11598770D01*
X26535458Y11575846D01*
X26549779Y11561525D01*
X26562619Y11546492D01*
X26574528Y11530101D01*
X26597240Y11511312D01*
X26608605Y11501910D01*
X26617384Y11493920D01*
X28083551Y10027753D01*
X28091095Y10019463D01*
X28095208Y10012982D01*
X28100985Y10007557D01*
X28144875Y9966342D01*
X28147717Y9963587D01*
X28167439Y9943865D01*
X28170563Y9941442D01*
X28170567Y9941438D01*
X28170632Y9941388D01*
X28179653Y9933683D01*
X28211887Y9903414D01*
X28218835Y9899595D01*
X28218837Y9899593D01*
X28229640Y9893654D01*
X28246167Y9882798D01*
X28255906Y9875243D01*
X28255908Y9875242D01*
X28262168Y9870386D01*
X28302748Y9852826D01*
X28313396Y9847609D01*
X28338184Y9833982D01*
X28352148Y9826305D01*
X28359824Y9824334D01*
X28359827Y9824333D01*
X28371770Y9821267D01*
X28390475Y9814863D01*
X28409063Y9806819D01*
X28416886Y9805580D01*
X28416896Y9805577D01*
X28452732Y9799901D01*
X28464352Y9797495D01*
X28496167Y9789327D01*
X28507178Y9786500D01*
X28527432Y9786500D01*
X28547142Y9784949D01*
X28567151Y9781780D01*
X28575043Y9782526D01*
X28593788Y9784298D01*
X28611170Y9785941D01*
X28623027Y9786500D01*
X31354025Y9786500D01*
X31365208Y9785973D01*
X31372701Y9784298D01*
X31380627Y9784547D01*
X31380628Y9784547D01*
X31440778Y9786438D01*
X31444737Y9786500D01*
X31472648Y9786500D01*
X31476583Y9786997D01*
X31476648Y9787005D01*
X31488485Y9787938D01*
X31520743Y9788952D01*
X31524762Y9789078D01*
X31532681Y9789327D01*
X31552135Y9794979D01*
X31571492Y9798987D01*
X31583722Y9800532D01*
X31583723Y9800532D01*
X31591589Y9801526D01*
X31598960Y9804445D01*
X31598962Y9804445D01*
X31632704Y9817804D01*
X31643934Y9821649D01*
X31678775Y9831771D01*
X31678776Y9831771D01*
X31686385Y9833982D01*
X31693204Y9838015D01*
X31693209Y9838017D01*
X31703820Y9844293D01*
X31721568Y9852988D01*
X31740409Y9860448D01*
X31776179Y9886436D01*
X31786099Y9892952D01*
X31817327Y9911420D01*
X31817330Y9911422D01*
X31824154Y9915458D01*
X31838475Y9929779D01*
X31853509Y9942620D01*
X31855223Y9943865D01*
X31869899Y9954528D01*
X31898090Y9988605D01*
X31906080Y9997384D01*
X35777704Y13869007D01*
X35785990Y13876547D01*
X35792469Y13880659D01*
X35839095Y13930311D01*
X35841849Y13933152D01*
X35861586Y13952889D01*
X35864066Y13956086D01*
X35871771Y13965108D01*
X35896610Y13991559D01*
X35902037Y13997338D01*
X35905856Y14004284D01*
X35905858Y14004287D01*
X35911799Y14015093D01*
X35922650Y14031612D01*
X35930209Y14041358D01*
X35935065Y14047618D01*
X35938210Y14054887D01*
X35938213Y14054891D01*
X35952625Y14088196D01*
X35957842Y14098846D01*
X35979146Y14137599D01*
X35984184Y14157222D01*
X35990588Y14175925D01*
X35995484Y14187239D01*
X35995484Y14187240D01*
X35998632Y14194514D01*
X35999871Y14202337D01*
X35999874Y14202347D01*
X36005550Y14238183D01*
X36007956Y14249803D01*
X36016979Y14284948D01*
X36016979Y14284949D01*
X36018951Y14292629D01*
X36018951Y14312883D01*
X36020502Y14332594D01*
X36022431Y14344773D01*
X36023671Y14352602D01*
X36019510Y14396621D01*
X36018951Y14408478D01*
X36018951Y15037427D01*
X36038953Y15105548D01*
X36051309Y15121730D01*
X36124491Y15203007D01*
X36124491Y15203008D01*
X36124556Y15202949D01*
X36178593Y15244618D01*
X36228265Y15253141D01*
X36232114Y15253020D01*
X36239943Y15251780D01*
X36247835Y15252526D01*
X36283961Y15255941D01*
X36295819Y15256500D01*
X43610711Y15256500D01*
X43678832Y15236498D01*
X43699806Y15219595D01*
X49423474Y9495927D01*
X49457500Y9433615D01*
X49452435Y9362800D01*
X49428017Y9322525D01*
X49350960Y9236944D01*
X49307606Y9161852D01*
X49277138Y9109080D01*
X49255473Y9071556D01*
X49196458Y8889928D01*
X49195768Y8883367D01*
X49195768Y8883365D01*
X49193149Y8858444D01*
X49176496Y8700000D01*
X49177186Y8693435D01*
X49195243Y8521635D01*
X49196458Y8510072D01*
X49255473Y8328444D01*
X49258776Y8322722D01*
X49258777Y8322721D01*
X49264156Y8313405D01*
X49350960Y8163056D01*
X49424137Y8081785D01*
X49454853Y8017779D01*
X49456500Y7997476D01*
X49456500Y7744595D01*
X49436498Y7676474D01*
X49419595Y7655499D01*
X48634499Y6870404D01*
X48572187Y6836379D01*
X48545404Y6833500D01*
X43678200Y6833500D01*
X43610079Y6853502D01*
X43590853Y6869843D01*
X43590580Y6869540D01*
X43585668Y6873963D01*
X43581253Y6878866D01*
X43548033Y6903002D01*
X43432094Y6987237D01*
X43432093Y6987238D01*
X43426752Y6991118D01*
X43420724Y6993802D01*
X43420722Y6993803D01*
X43258319Y7066109D01*
X43258318Y7066109D01*
X43252288Y7068794D01*
X43157420Y7088959D01*
X43071944Y7107128D01*
X43071939Y7107128D01*
X43065487Y7108500D01*
X42874513Y7108500D01*
X42868061Y7107128D01*
X42868056Y7107128D01*
X42782580Y7088959D01*
X42687712Y7068794D01*
X42681682Y7066109D01*
X42681681Y7066109D01*
X42519278Y6993803D01*
X42519276Y6993802D01*
X42513248Y6991118D01*
X42358747Y6878866D01*
X42354326Y6873956D01*
X42354325Y6873955D01*
X42239742Y6746697D01*
X42230960Y6736944D01*
X42194852Y6674403D01*
X42141415Y6581847D01*
X42135473Y6571556D01*
X42076458Y6389928D01*
X42075768Y6383367D01*
X42075768Y6383365D01*
X42059601Y6229547D01*
X42056496Y6200000D01*
X42057186Y6193435D01*
X42058482Y6181109D01*
X42076458Y6010072D01*
X42135473Y5828444D01*
X42138776Y5822722D01*
X42138777Y5822721D01*
X42156292Y5792384D01*
X42230960Y5663056D01*
X42235378Y5658149D01*
X42235379Y5658148D01*
X42317452Y5566997D01*
X42358747Y5521134D01*
X42513248Y5408882D01*
X42519276Y5406198D01*
X42519278Y5406197D01*
X42681681Y5333891D01*
X42687712Y5331206D01*
X42763955Y5315000D01*
X42868056Y5292872D01*
X42868061Y5292872D01*
X42874513Y5291500D01*
X43065487Y5291500D01*
X43071939Y5292872D01*
X43071944Y5292872D01*
X43176045Y5315000D01*
X43252288Y5331206D01*
X43258319Y5333891D01*
X43420722Y5406197D01*
X43420724Y5406198D01*
X43426752Y5408882D01*
X43581253Y5521134D01*
X43585668Y5526037D01*
X43590580Y5530460D01*
X43591705Y5529211D01*
X43645014Y5562051D01*
X43678200Y5566500D01*
X48781233Y5566500D01*
X48792416Y5565973D01*
X48799909Y5564298D01*
X48807835Y5564547D01*
X48807836Y5564547D01*
X48867986Y5566438D01*
X48871945Y5566500D01*
X48899856Y5566500D01*
X48903791Y5566997D01*
X48903856Y5567005D01*
X48915693Y5567938D01*
X48947951Y5568952D01*
X48951970Y5569078D01*
X48959889Y5569327D01*
X48979343Y5574979D01*
X48998700Y5578987D01*
X49010930Y5580532D01*
X49010931Y5580532D01*
X49018797Y5581526D01*
X49026168Y5584445D01*
X49026170Y5584445D01*
X49059912Y5597804D01*
X49071142Y5601649D01*
X49105983Y5611771D01*
X49105984Y5611771D01*
X49113593Y5613982D01*
X49120412Y5618015D01*
X49120417Y5618017D01*
X49131028Y5624293D01*
X49148776Y5632988D01*
X49167617Y5640448D01*
X49203387Y5666436D01*
X49213307Y5672952D01*
X49244535Y5691420D01*
X49244538Y5691422D01*
X49251362Y5695458D01*
X49265683Y5709779D01*
X49280717Y5722620D01*
X49297107Y5734528D01*
X49302157Y5740633D01*
X49302164Y5740639D01*
X49310757Y5751026D01*
X49369591Y5790763D01*
X49440569Y5792384D01*
X49501156Y5755374D01*
X49532116Y5691483D01*
X49527673Y5631774D01*
X49486458Y5504928D01*
X49485768Y5498367D01*
X49485768Y5498365D01*
X49468199Y5331206D01*
X49466496Y5315000D01*
X49486458Y5125072D01*
X49545473Y4943444D01*
X49548776Y4937722D01*
X49548777Y4937721D01*
X49555467Y4926134D01*
X49640960Y4778056D01*
X49714137Y4696785D01*
X49744853Y4632779D01*
X49746500Y4612476D01*
X49746500Y2973767D01*
X49745973Y2962584D01*
X49744298Y2955091D01*
X49744547Y2947165D01*
X49744547Y2947164D01*
X49746438Y2887014D01*
X49746500Y2883055D01*
X49746500Y2855144D01*
X49746997Y2851210D01*
X49746997Y2851209D01*
X49747005Y2851144D01*
X49747938Y2839307D01*
X49749327Y2795111D01*
X49754978Y2775661D01*
X49758987Y2756300D01*
X49761526Y2736203D01*
X49764445Y2728832D01*
X49764445Y2728830D01*
X49777804Y2695088D01*
X49781649Y2683858D01*
X49791771Y2649017D01*
X49793982Y2641407D01*
X49798015Y2634588D01*
X49798017Y2634583D01*
X49804293Y2623972D01*
X49812988Y2606224D01*
X49820448Y2587383D01*
X49825110Y2580967D01*
X49825110Y2580966D01*
X49846436Y2551613D01*
X49852952Y2541693D01*
X49875458Y2503638D01*
X49889779Y2489317D01*
X49902619Y2474284D01*
X49914528Y2457893D01*
X49920633Y2452842D01*
X49920638Y2452837D01*
X49948598Y2429706D01*
X49957376Y2421719D01*
X50110731Y2268365D01*
X50242878Y2136218D01*
X50276903Y2073905D01*
X50279093Y2060294D01*
X50296458Y1895072D01*
X50355473Y1713444D01*
X50358776Y1707722D01*
X50358777Y1707721D01*
X50363931Y1698794D01*
X50450960Y1548056D01*
X50578747Y1406134D01*
X50733248Y1293882D01*
X50739276Y1291198D01*
X50739278Y1291197D01*
X50833509Y1249243D01*
X50907712Y1216206D01*
X51000510Y1196481D01*
X51088056Y1177872D01*
X51088061Y1177872D01*
X51094513Y1176500D01*
X51285487Y1176500D01*
X51291939Y1177872D01*
X51291944Y1177872D01*
X51379490Y1196481D01*
X51472288Y1216206D01*
X51546491Y1249243D01*
X51640722Y1291197D01*
X51640724Y1291198D01*
X51646752Y1293882D01*
X51801253Y1406134D01*
X51929040Y1548056D01*
X52016069Y1698794D01*
X52021223Y1707721D01*
X52021224Y1707722D01*
X52024527Y1713444D01*
X52083542Y1895072D01*
X52103504Y2085000D01*
X52083542Y2274928D01*
X52024527Y2456556D01*
X51929040Y2621944D01*
X51911516Y2641407D01*
X51805675Y2758955D01*
X51805674Y2758956D01*
X51801253Y2763866D01*
X51646752Y2876118D01*
X51640724Y2878802D01*
X51640722Y2878803D01*
X51478319Y2951109D01*
X51478318Y2951109D01*
X51472288Y2953794D01*
X51378323Y2973767D01*
X51291944Y2992128D01*
X51291939Y2992128D01*
X51285487Y2993500D01*
X51229595Y2993500D01*
X51161474Y3013502D01*
X51140500Y3030405D01*
X51050405Y3120500D01*
X51016379Y3182812D01*
X51013500Y3209595D01*
X51013500Y4439162D01*
X51033502Y4507283D01*
X51087158Y4553776D01*
X51157432Y4563880D01*
X51222012Y4534386D01*
X51233127Y4523482D01*
X51248747Y4506134D01*
X51254089Y4502253D01*
X51374807Y4414546D01*
X51403248Y4393882D01*
X51409276Y4391198D01*
X51409278Y4391197D01*
X51508100Y4347199D01*
X51577712Y4316206D01*
X51671113Y4296353D01*
X51758056Y4277872D01*
X51758061Y4277872D01*
X51764513Y4276500D01*
X51820406Y4276500D01*
X51888527Y4256498D01*
X51909501Y4239595D01*
X52881343Y3267753D01*
X52888887Y3259463D01*
X52893000Y3252982D01*
X52898777Y3247557D01*
X52942667Y3206342D01*
X52945509Y3203587D01*
X52965231Y3183865D01*
X52968355Y3181442D01*
X52968359Y3181438D01*
X52968424Y3181388D01*
X52977445Y3173683D01*
X53009679Y3143414D01*
X53016627Y3139595D01*
X53016629Y3139593D01*
X53027432Y3133654D01*
X53043959Y3122798D01*
X53053698Y3115243D01*
X53053700Y3115242D01*
X53059960Y3110386D01*
X53100540Y3092826D01*
X53111188Y3087609D01*
X53136187Y3073866D01*
X53149940Y3066305D01*
X53157616Y3064334D01*
X53157619Y3064333D01*
X53169562Y3061267D01*
X53188267Y3054863D01*
X53206855Y3046819D01*
X53214678Y3045580D01*
X53214688Y3045577D01*
X53250524Y3039901D01*
X53262144Y3037495D01*
X53289760Y3030405D01*
X53304970Y3026500D01*
X53325224Y3026500D01*
X53344934Y3024949D01*
X53364943Y3021780D01*
X53372835Y3022526D01*
X53408961Y3025941D01*
X53420819Y3026500D01*
X55081184Y3026500D01*
X55149305Y3006498D01*
X55195798Y2952842D01*
X55205902Y2882568D01*
X55201418Y2862821D01*
X55183429Y2805419D01*
X55158247Y2725062D01*
X55151500Y2651635D01*
X55151501Y1638366D01*
X55158247Y1564938D01*
X55160246Y1558560D01*
X55160246Y1558559D01*
X55171251Y1523444D01*
X55209528Y1401301D01*
X55298361Y1254619D01*
X55419619Y1133361D01*
X55566301Y1044528D01*
X55573548Y1042257D01*
X55573550Y1042256D01*
X55616198Y1028891D01*
X55729938Y993247D01*
X55803365Y986500D01*
X55806263Y986500D01*
X56060665Y986501D01*
X56316634Y986501D01*
X56319492Y986764D01*
X56319501Y986764D01*
X56355004Y990026D01*
X56390062Y993247D01*
X56396447Y995248D01*
X56546450Y1042256D01*
X56546452Y1042257D01*
X56553699Y1044528D01*
X56690018Y1127085D01*
X56758648Y1145264D01*
X56829350Y1121245D01*
X56847308Y1108198D01*
X56853248Y1103882D01*
X56859276Y1101198D01*
X56859278Y1101197D01*
X57006844Y1035497D01*
X57027712Y1026206D01*
X57121113Y1006353D01*
X57208056Y987872D01*
X57208061Y987872D01*
X57214513Y986500D01*
X57405487Y986500D01*
X57411939Y987872D01*
X57411944Y987872D01*
X57498887Y1006353D01*
X57592288Y1026206D01*
X57613156Y1035497D01*
X57760722Y1101197D01*
X57760724Y1101198D01*
X57766752Y1103882D01*
X57861366Y1172623D01*
X57928230Y1196480D01*
X57997382Y1180400D01*
X58009485Y1172622D01*
X58098157Y1108198D01*
X58109529Y1101632D01*
X58271839Y1029367D01*
X58284325Y1025310D01*
X58288278Y1024470D01*
X58302341Y1025543D01*
X58306000Y1035497D01*
X58306000Y2273000D01*
X58326002Y2341121D01*
X58379658Y2387614D01*
X58432000Y2399000D01*
X58688000Y2399000D01*
X58756121Y2378998D01*
X58802614Y2325342D01*
X58814000Y2273000D01*
X58814000Y1038818D01*
X58817973Y1025287D01*
X58828468Y1023778D01*
X58835675Y1025310D01*
X58848161Y1029367D01*
X59010471Y1101632D01*
X59021843Y1108198D01*
X59110515Y1172622D01*
X59177383Y1196481D01*
X59246534Y1180400D01*
X59258620Y1172634D01*
X59353248Y1103882D01*
X59359276Y1101198D01*
X59359278Y1101197D01*
X59506844Y1035497D01*
X59527712Y1026206D01*
X59621113Y1006353D01*
X59708056Y987872D01*
X59708061Y987872D01*
X59714513Y986500D01*
X59905487Y986500D01*
X59911939Y987872D01*
X59911944Y987872D01*
X59998887Y1006353D01*
X60092288Y1026206D01*
X60113156Y1035497D01*
X60260722Y1101197D01*
X60260724Y1101198D01*
X60266752Y1103882D01*
X60272693Y1108198D01*
X60360939Y1172313D01*
X60427807Y1196172D01*
X60496958Y1180091D01*
X60509061Y1172313D01*
X60597308Y1108198D01*
X60603248Y1103882D01*
X60609276Y1101198D01*
X60609278Y1101197D01*
X60756844Y1035497D01*
X60777712Y1026206D01*
X60871113Y1006353D01*
X60958056Y987872D01*
X60958061Y987872D01*
X60964513Y986500D01*
X61155487Y986500D01*
X61161939Y987872D01*
X61161944Y987872D01*
X61248887Y1006353D01*
X61342288Y1026206D01*
X61363156Y1035497D01*
X61510722Y1101197D01*
X61510724Y1101198D01*
X61516752Y1103882D01*
X61522693Y1108198D01*
X61610939Y1172313D01*
X61677807Y1196172D01*
X61746958Y1180091D01*
X61759061Y1172313D01*
X61847308Y1108198D01*
X61853248Y1103882D01*
X61859276Y1101198D01*
X61859278Y1101197D01*
X62006844Y1035497D01*
X62027712Y1026206D01*
X62121113Y1006353D01*
X62208056Y987872D01*
X62208061Y987872D01*
X62214513Y986500D01*
X62405487Y986500D01*
X62411939Y987872D01*
X62411944Y987872D01*
X62498887Y1006353D01*
X62592288Y1026206D01*
X62613156Y1035497D01*
X62760722Y1101197D01*
X62760724Y1101198D01*
X62766752Y1103882D01*
X62772693Y1108198D01*
X62861364Y1172622D01*
X62921253Y1216134D01*
X62935000Y1231402D01*
X63044621Y1353148D01*
X63044622Y1353149D01*
X63049040Y1358056D01*
X63144527Y1523444D01*
X63203542Y1705072D01*
X63205083Y1719729D01*
X63218156Y1844120D01*
X63218500Y1847390D01*
X63218500Y2105406D01*
X63238502Y2173527D01*
X63255405Y2194501D01*
X66662247Y5601343D01*
X66670537Y5608887D01*
X66677018Y5613000D01*
X66695794Y5632994D01*
X66723658Y5662667D01*
X66726413Y5665509D01*
X66746135Y5685231D01*
X66748619Y5688433D01*
X66756317Y5697445D01*
X66781161Y5723902D01*
X66786586Y5729679D01*
X66796347Y5747434D01*
X66807198Y5763953D01*
X66819614Y5779959D01*
X66826092Y5794928D01*
X66837174Y5820537D01*
X66842391Y5831187D01*
X66863695Y5869940D01*
X66868733Y5889563D01*
X66875137Y5908266D01*
X66880033Y5919580D01*
X66880033Y5919581D01*
X66883181Y5926855D01*
X66884420Y5934678D01*
X66884423Y5934688D01*
X66890099Y5970524D01*
X66892505Y5982144D01*
X66901528Y6017289D01*
X66901528Y6017290D01*
X66903500Y6024970D01*
X66903500Y6045224D01*
X66905051Y6064935D01*
X66906980Y6077114D01*
X66908220Y6084943D01*
X66904059Y6128962D01*
X66903500Y6140819D01*
X66903500Y8002476D01*
X66923502Y8070597D01*
X66935858Y8086779D01*
X67009040Y8168056D01*
X67083661Y8297303D01*
X67101223Y8327721D01*
X67101224Y8327722D01*
X67104527Y8333444D01*
X67110667Y8352341D01*
X67150740Y8410947D01*
X67216137Y8438584D01*
X67286094Y8426477D01*
X67338400Y8378471D01*
X67356500Y8313405D01*
X67356500Y7169600D01*
X67356837Y7166354D01*
X67356837Y7166350D01*
X67366582Y7072432D01*
X67367474Y7063834D01*
X67369655Y7057298D01*
X67369655Y7057296D01*
X67390838Y6993803D01*
X67423450Y6896054D01*
X67516522Y6745652D01*
X67641697Y6620695D01*
X67647927Y6616855D01*
X67647928Y6616854D01*
X67785090Y6532306D01*
X67792262Y6527885D01*
X67872005Y6501436D01*
X67953611Y6474368D01*
X67953613Y6474368D01*
X67960139Y6472203D01*
X67966975Y6471503D01*
X67966978Y6471502D01*
X68010031Y6467091D01*
X68064600Y6461500D01*
X69615400Y6461500D01*
X69618646Y6461837D01*
X69618650Y6461837D01*
X69714308Y6471762D01*
X69714312Y6471763D01*
X69721166Y6472474D01*
X69727702Y6474655D01*
X69727704Y6474655D01*
X69859806Y6518728D01*
X69888946Y6528450D01*
X70039348Y6621522D01*
X70164305Y6746697D01*
X70168146Y6752928D01*
X70253275Y6891032D01*
X70253276Y6891034D01*
X70257115Y6897262D01*
X70287101Y6987667D01*
X70310632Y7058611D01*
X70310632Y7058613D01*
X70312797Y7065139D01*
X70313545Y7072432D01*
X70323172Y7166402D01*
X70323500Y7169600D01*
X70323500Y8470400D01*
X70323163Y8473650D01*
X70313238Y8569308D01*
X70313237Y8569312D01*
X70312526Y8576166D01*
X70277908Y8679930D01*
X70258868Y8736998D01*
X70256550Y8743946D01*
X70163478Y8894348D01*
X70038303Y9019305D01*
X70029720Y9024596D01*
X69993966Y9046635D01*
X69892660Y9109081D01*
X69845168Y9161852D01*
X69833744Y9231924D01*
X69862018Y9297048D01*
X69871805Y9307510D01*
X69951846Y9383866D01*
X69986135Y9416576D01*
X70123754Y9601542D01*
X70129137Y9612128D01*
X70204941Y9761226D01*
X70228240Y9807051D01*
X70232655Y9821267D01*
X70295024Y10022129D01*
X70296607Y10027227D01*
X70298433Y10041006D01*
X70326198Y10250489D01*
X70326198Y10250494D01*
X70326898Y10255774D01*
X70318249Y10486158D01*
X70270907Y10711791D01*
X70262719Y10732524D01*
X70188185Y10921256D01*
X70188184Y10921258D01*
X70186224Y10926221D01*
X70162594Y10965163D01*
X70069390Y11118757D01*
X70066623Y11123317D01*
X69979755Y11223424D01*
X69919023Y11293412D01*
X69919021Y11293414D01*
X69915523Y11297445D01*
X69830539Y11367128D01*
X69741373Y11440240D01*
X69741367Y11440244D01*
X69737245Y11443624D01*
X69705750Y11461552D01*
X69656445Y11512632D01*
X69642583Y11582262D01*
X69668566Y11648333D01*
X69697716Y11675573D01*
X69765525Y11721225D01*
X69819319Y11757441D01*
X69823865Y11761777D01*
X69934034Y11866874D01*
X69986135Y11916576D01*
X70123754Y12101542D01*
X70228240Y12307051D01*
X70264321Y12423248D01*
X70295024Y12522129D01*
X70296607Y12527227D01*
X70309862Y12627237D01*
X70326198Y12750489D01*
X70326198Y12750494D01*
X70326898Y12755774D01*
X70318249Y12986158D01*
X70270907Y13211791D01*
X70242727Y13283148D01*
X70188185Y13421256D01*
X70188184Y13421258D01*
X70186224Y13426221D01*
X70173178Y13447721D01*
X70069390Y13618757D01*
X70066623Y13623317D01*
X69979755Y13723424D01*
X69919023Y13793412D01*
X69919021Y13793414D01*
X69915523Y13797445D01*
X69818504Y13876996D01*
X69741373Y13940240D01*
X69741367Y13940244D01*
X69737245Y13943624D01*
X69720969Y13952889D01*
X69705265Y13961829D01*
X69655959Y14012912D01*
X69642098Y14082542D01*
X69668082Y14148613D01*
X69697232Y14175851D01*
X69814578Y14254852D01*
X69822870Y14261519D01*
X69981900Y14413228D01*
X69988941Y14421186D01*
X70120141Y14597525D01*
X70125745Y14606562D01*
X70225357Y14802484D01*
X70229357Y14812335D01*
X70294534Y15022240D01*
X70296817Y15032624D01*
X70298861Y15048043D01*
X70296665Y15062207D01*
X70283478Y15066000D01*
X67398808Y15066000D01*
X67385277Y15062027D01*
X67383752Y15051420D01*
X67408477Y14933579D01*
X67411537Y14923383D01*
X67492263Y14718971D01*
X67496994Y14709439D01*
X67611016Y14521538D01*
X67617280Y14512948D01*
X67761327Y14346948D01*
X67768958Y14339528D01*
X67938911Y14200174D01*
X67947674Y14194152D01*
X67974711Y14178762D01*
X68024018Y14127680D01*
X68037880Y14058049D01*
X68011897Y13991978D01*
X67982747Y13964739D01*
X67946358Y13940240D01*
X67860681Y13882559D01*
X67693865Y13723424D01*
X67556246Y13538458D01*
X67451760Y13332949D01*
X67450178Y13327855D01*
X67450177Y13327852D01*
X67395277Y13151045D01*
X67383393Y13112773D01*
X67382692Y13107484D01*
X67357380Y12916500D01*
X67353102Y12884226D01*
X67361751Y12653842D01*
X67409093Y12428209D01*
X67411051Y12423250D01*
X67411052Y12423248D01*
X67465878Y12284422D01*
X67493776Y12213779D01*
X67613377Y12016683D01*
X67616874Y12012653D01*
X67759866Y11847869D01*
X67764477Y11842555D01*
X67768608Y11839168D01*
X67938627Y11699760D01*
X67938633Y11699756D01*
X67942755Y11696376D01*
X67974250Y11678448D01*
X68023555Y11627368D01*
X68037417Y11557738D01*
X68011434Y11491667D01*
X67982284Y11464427D01*
X67860681Y11382559D01*
X67693865Y11223424D01*
X67556246Y11038458D01*
X67553830Y11033707D01*
X67553828Y11033703D01*
X67535139Y10996944D01*
X67451760Y10832949D01*
X67450178Y10827855D01*
X67450177Y10827852D01*
X67405559Y10684158D01*
X67383393Y10612773D01*
X67382692Y10607484D01*
X67354215Y10392620D01*
X67353102Y10384226D01*
X67361751Y10153842D01*
X67409093Y9928209D01*
X67411051Y9923250D01*
X67411052Y9923248D01*
X67465927Y9784298D01*
X67493776Y9713779D01*
X67496543Y9709220D01*
X67496544Y9709217D01*
X67574273Y9581124D01*
X67613377Y9516683D01*
X67616874Y9512653D01*
X67710406Y9404867D01*
X67764477Y9342555D01*
X67800120Y9313330D01*
X67840114Y9254671D01*
X67842046Y9183701D01*
X67805302Y9122952D01*
X67786532Y9108752D01*
X67724348Y9070271D01*
X67640652Y9018478D01*
X67515695Y8893303D01*
X67511855Y8887073D01*
X67511854Y8887072D01*
X67439746Y8770091D01*
X67422885Y8742738D01*
X67420581Y8735791D01*
X67417487Y8729156D01*
X67415221Y8730213D01*
X67381533Y8681573D01*
X67315972Y8654328D01*
X67246089Y8666854D01*
X67194071Y8715173D01*
X67177049Y8766420D01*
X67164232Y8888365D01*
X67164232Y8888367D01*
X67163542Y8894928D01*
X67104527Y9076556D01*
X67009040Y9241944D01*
X66995087Y9257441D01*
X66885675Y9378955D01*
X66885674Y9378956D01*
X66881253Y9383866D01*
X66726752Y9496118D01*
X66720724Y9498802D01*
X66720722Y9498803D01*
X66558319Y9571109D01*
X66558318Y9571109D01*
X66552288Y9573794D01*
X66441890Y9597260D01*
X66371944Y9612128D01*
X66371939Y9612128D01*
X66365487Y9613500D01*
X66174513Y9613500D01*
X66168061Y9612128D01*
X66168056Y9612128D01*
X66098110Y9597260D01*
X65987712Y9573794D01*
X65981682Y9571109D01*
X65981681Y9571109D01*
X65819278Y9498803D01*
X65819276Y9498802D01*
X65813248Y9496118D01*
X65658747Y9383866D01*
X65654326Y9378956D01*
X65654325Y9378955D01*
X65544914Y9257441D01*
X65530960Y9241944D01*
X65435473Y9076556D01*
X65376458Y8894928D01*
X65375768Y8888367D01*
X65375768Y8888365D01*
X65373284Y8864729D01*
X65356496Y8705000D01*
X65357186Y8698435D01*
X65372661Y8551203D01*
X65376458Y8515072D01*
X65435473Y8333444D01*
X65438776Y8327722D01*
X65438777Y8327721D01*
X65456339Y8297303D01*
X65530960Y8168056D01*
X65604137Y8086785D01*
X65634853Y8022779D01*
X65636500Y8002476D01*
X65636500Y6419594D01*
X65616498Y6351473D01*
X65599595Y6330499D01*
X62591678Y3322582D01*
X62529366Y3288556D01*
X62476386Y3288430D01*
X62411944Y3302128D01*
X62411939Y3302128D01*
X62405487Y3303500D01*
X62214513Y3303500D01*
X62208061Y3302128D01*
X62208056Y3302128D01*
X62121112Y3283647D01*
X62027712Y3263794D01*
X62021682Y3261109D01*
X62021681Y3261109D01*
X61892956Y3203797D01*
X61853248Y3186118D01*
X61847907Y3182238D01*
X61843365Y3179615D01*
X61774370Y3162875D01*
X61707278Y3186093D01*
X61663198Y3242378D01*
X61662184Y3244941D01*
X61658351Y3256142D01*
X61648229Y3290983D01*
X61648229Y3290984D01*
X61646018Y3298593D01*
X61641985Y3305412D01*
X61641983Y3305417D01*
X61635707Y3316028D01*
X61627012Y3333776D01*
X61619552Y3352617D01*
X61593564Y3388387D01*
X61587048Y3398307D01*
X61568580Y3429535D01*
X61568578Y3429538D01*
X61564542Y3436362D01*
X61550221Y3450683D01*
X61537380Y3465717D01*
X61530131Y3475694D01*
X61525472Y3482107D01*
X61519367Y3487158D01*
X61519362Y3487163D01*
X61491396Y3510299D01*
X61482618Y3518287D01*
X60787801Y4213104D01*
X60780261Y4221390D01*
X60776149Y4227869D01*
X60726497Y4274495D01*
X60723656Y4277249D01*
X60703919Y4296986D01*
X60700722Y4299466D01*
X60691700Y4307171D01*
X60679495Y4318632D01*
X60659470Y4337437D01*
X60652524Y4341256D01*
X60652521Y4341258D01*
X60641715Y4347199D01*
X60625196Y4358050D01*
X60624732Y4358410D01*
X60609190Y4370465D01*
X60601921Y4373610D01*
X60601917Y4373613D01*
X60568612Y4388025D01*
X60557962Y4393242D01*
X60519209Y4414546D01*
X60499586Y4419584D01*
X60480883Y4425988D01*
X60469569Y4430884D01*
X60469568Y4430884D01*
X60462294Y4434032D01*
X60454471Y4435271D01*
X60454461Y4435274D01*
X60418625Y4440950D01*
X60407005Y4443356D01*
X60371860Y4452379D01*
X60371859Y4452379D01*
X60364179Y4454351D01*
X60343925Y4454351D01*
X60324214Y4455902D01*
X60312035Y4457831D01*
X60304206Y4459071D01*
X60296314Y4458325D01*
X60260188Y4454910D01*
X60248330Y4454351D01*
X59590445Y4454351D01*
X59522324Y4474353D01*
X59501350Y4491256D01*
X59490353Y4502253D01*
X59482813Y4510539D01*
X59478701Y4517018D01*
X59429049Y4563644D01*
X59426208Y4566398D01*
X59406471Y4586135D01*
X59403274Y4588615D01*
X59394252Y4596320D01*
X59367801Y4621159D01*
X59362022Y4626586D01*
X59355076Y4630405D01*
X59355073Y4630407D01*
X59344267Y4636348D01*
X59327748Y4647199D01*
X59326643Y4648056D01*
X59311742Y4659614D01*
X59304473Y4662759D01*
X59304469Y4662762D01*
X59271164Y4677174D01*
X59260514Y4682391D01*
X59221761Y4703695D01*
X59202138Y4708733D01*
X59183435Y4715137D01*
X59172121Y4720033D01*
X59172120Y4720033D01*
X59164846Y4723181D01*
X59157023Y4724420D01*
X59157013Y4724423D01*
X59121177Y4730099D01*
X59109557Y4732505D01*
X59074412Y4741528D01*
X59074411Y4741528D01*
X59066731Y4743500D01*
X59046477Y4743500D01*
X59026766Y4745051D01*
X59014587Y4746980D01*
X59006758Y4748220D01*
X58998866Y4747474D01*
X58962740Y4744059D01*
X58950882Y4743500D01*
X56489595Y4743500D01*
X56421474Y4763502D01*
X56400500Y4780405D01*
X55627122Y5553783D01*
X55593096Y5616095D01*
X55590907Y5629708D01*
X55574232Y5788365D01*
X55574232Y5788367D01*
X55573542Y5794928D01*
X55514527Y5976556D01*
X55495177Y6010072D01*
X55481688Y6033435D01*
X55476454Y6042500D01*
X55459716Y6111495D01*
X55482936Y6178587D01*
X55538743Y6222474D01*
X55585573Y6231500D01*
X59857934Y6231500D01*
X59869117Y6230973D01*
X59876610Y6229298D01*
X59884536Y6229547D01*
X59884537Y6229547D01*
X59944687Y6231438D01*
X59948646Y6231500D01*
X59976557Y6231500D01*
X59980492Y6231997D01*
X59980557Y6232005D01*
X59992394Y6232938D01*
X60024652Y6233952D01*
X60028671Y6234078D01*
X60036590Y6234327D01*
X60056044Y6239979D01*
X60075401Y6243987D01*
X60087631Y6245532D01*
X60087632Y6245532D01*
X60095498Y6246526D01*
X60102869Y6249445D01*
X60102871Y6249445D01*
X60136613Y6262804D01*
X60147843Y6266649D01*
X60182684Y6276771D01*
X60182685Y6276771D01*
X60190294Y6278982D01*
X60197113Y6283015D01*
X60197118Y6283017D01*
X60207729Y6289293D01*
X60225477Y6297988D01*
X60244318Y6305448D01*
X60280088Y6331436D01*
X60290008Y6337952D01*
X60321236Y6356420D01*
X60321239Y6356422D01*
X60328063Y6360458D01*
X60342384Y6374779D01*
X60357418Y6387620D01*
X60360595Y6389928D01*
X60373808Y6399528D01*
X60401999Y6433605D01*
X60409989Y6442384D01*
X61981405Y8013800D01*
X62043717Y8047826D01*
X62114532Y8042761D01*
X62171368Y8000214D01*
X62196179Y7933694D01*
X62196500Y7924705D01*
X62196500Y6742524D01*
X62176498Y6674403D01*
X62164142Y6658221D01*
X62090960Y6576944D01*
X62032686Y6476010D01*
X62013272Y6442384D01*
X61995473Y6411556D01*
X61936458Y6229928D01*
X61935768Y6223367D01*
X61935768Y6223365D01*
X61921220Y6084943D01*
X61916496Y6040000D01*
X61917186Y6033435D01*
X61934483Y5868866D01*
X61936458Y5850072D01*
X61995473Y5668444D01*
X61998776Y5662722D01*
X61998777Y5662721D01*
X62013321Y5637531D01*
X62090960Y5503056D01*
X62095378Y5498149D01*
X62095379Y5498148D01*
X62175834Y5408794D01*
X62218747Y5361134D01*
X62373248Y5248882D01*
X62379276Y5246198D01*
X62379278Y5246197D01*
X62516730Y5185000D01*
X62547712Y5171206D01*
X62641113Y5151353D01*
X62728056Y5132872D01*
X62728061Y5132872D01*
X62734513Y5131500D01*
X62925487Y5131500D01*
X62931939Y5132872D01*
X62931944Y5132872D01*
X63018888Y5151353D01*
X63112288Y5171206D01*
X63143270Y5185000D01*
X63280722Y5246197D01*
X63280724Y5246198D01*
X63286752Y5248882D01*
X63441253Y5361134D01*
X63484166Y5408794D01*
X63564621Y5498148D01*
X63564622Y5498149D01*
X63569040Y5503056D01*
X63646679Y5637531D01*
X63661223Y5662721D01*
X63661224Y5662722D01*
X63664527Y5668444D01*
X63723542Y5850072D01*
X63725518Y5868866D01*
X63742814Y6033435D01*
X63743504Y6040000D01*
X63738780Y6084943D01*
X63724232Y6223365D01*
X63724232Y6223367D01*
X63723542Y6229928D01*
X63664527Y6411556D01*
X63646729Y6442384D01*
X63627314Y6476010D01*
X63569040Y6576944D01*
X63495863Y6658215D01*
X63465147Y6722221D01*
X63463500Y6742524D01*
X63463500Y11391135D01*
X63464027Y11402318D01*
X63465702Y11409811D01*
X63463986Y11464427D01*
X63463562Y11477901D01*
X63463500Y11481859D01*
X63463500Y11509759D01*
X63462996Y11513750D01*
X63462063Y11525592D01*
X63461922Y11530101D01*
X63460674Y11569792D01*
X63455021Y11589251D01*
X63451012Y11608610D01*
X63450846Y11609920D01*
X63448474Y11628700D01*
X63445558Y11636066D01*
X63445556Y11636072D01*
X63432200Y11669805D01*
X63428355Y11681035D01*
X63418230Y11715886D01*
X63418230Y11715887D01*
X63416019Y11723496D01*
X63405705Y11740937D01*
X63397008Y11758690D01*
X63392472Y11770145D01*
X63389552Y11777520D01*
X63363563Y11813291D01*
X63357047Y11823211D01*
X63334542Y11861265D01*
X63320221Y11875586D01*
X63307380Y11890620D01*
X63300131Y11900597D01*
X63295472Y11907010D01*
X63261395Y11935201D01*
X63252616Y11943191D01*
X61244402Y13951405D01*
X61210376Y14013717D01*
X61215441Y14084532D01*
X61257988Y14141368D01*
X61324508Y14166179D01*
X61333497Y14166500D01*
X62951233Y14166500D01*
X62962416Y14165973D01*
X62969909Y14164298D01*
X62977835Y14164547D01*
X62977836Y14164547D01*
X63037986Y14166438D01*
X63041945Y14166500D01*
X63069856Y14166500D01*
X63073791Y14166997D01*
X63073856Y14167005D01*
X63085693Y14167938D01*
X63117951Y14168952D01*
X63121970Y14169078D01*
X63129889Y14169327D01*
X63149343Y14174979D01*
X63168700Y14178987D01*
X63180930Y14180532D01*
X63180931Y14180532D01*
X63188797Y14181526D01*
X63196168Y14184445D01*
X63196170Y14184445D01*
X63229912Y14197804D01*
X63241142Y14201649D01*
X63275983Y14211771D01*
X63275984Y14211771D01*
X63283593Y14213982D01*
X63290412Y14218015D01*
X63290417Y14218017D01*
X63301028Y14224293D01*
X63318776Y14232988D01*
X63337617Y14240448D01*
X63373387Y14266436D01*
X63383307Y14272952D01*
X63414535Y14291420D01*
X63414538Y14291422D01*
X63421362Y14295458D01*
X63435683Y14309779D01*
X63450717Y14322620D01*
X63460694Y14329869D01*
X63467107Y14334528D01*
X63495298Y14368605D01*
X63503288Y14377384D01*
X63540499Y14414595D01*
X63602811Y14448621D01*
X63629594Y14451500D01*
X63685487Y14451500D01*
X63685487Y14449608D01*
X63746344Y14438481D01*
X63798193Y14389982D01*
X63815590Y14321150D01*
X63798800Y14262941D01*
X63763816Y14202347D01*
X63760473Y14196556D01*
X63701458Y14014928D01*
X63700768Y14008367D01*
X63700768Y14008365D01*
X63693964Y13943624D01*
X63681496Y13825000D01*
X63682186Y13818435D01*
X63698780Y13660555D01*
X63701458Y13635072D01*
X63760473Y13453444D01*
X63855960Y13288056D01*
X63983747Y13146134D01*
X64138248Y13033882D01*
X64144276Y13031198D01*
X64144278Y13031197D01*
X64233716Y12991377D01*
X64312712Y12956206D01*
X64406112Y12936353D01*
X64493056Y12917872D01*
X64493061Y12917872D01*
X64499513Y12916500D01*
X64690487Y12916500D01*
X64696939Y12917872D01*
X64696944Y12917872D01*
X64783888Y12936353D01*
X64877288Y12956206D01*
X64956284Y12991377D01*
X65045722Y13031197D01*
X65045724Y13031198D01*
X65051752Y13033882D01*
X65206253Y13146134D01*
X65334040Y13288056D01*
X65429527Y13453444D01*
X65488542Y13635072D01*
X65491221Y13660555D01*
X65507814Y13818435D01*
X65508504Y13825000D01*
X65496036Y13943624D01*
X65489232Y14008365D01*
X65489232Y14008367D01*
X65488542Y14014928D01*
X65429527Y14196556D01*
X65423899Y14206305D01*
X65369186Y14301069D01*
X65334040Y14361944D01*
X65260863Y14443215D01*
X65230147Y14507221D01*
X65228500Y14527524D01*
X65228500Y15301538D01*
X65229027Y15312721D01*
X65230702Y15320214D01*
X65228562Y15388291D01*
X65228500Y15392250D01*
X65228500Y15420161D01*
X65227995Y15424161D01*
X65227062Y15436004D01*
X65225922Y15472276D01*
X65225673Y15480195D01*
X65220022Y15499647D01*
X65216014Y15518999D01*
X65214467Y15531242D01*
X65213474Y15539102D01*
X65210556Y15546473D01*
X65197200Y15580208D01*
X65193355Y15591435D01*
X65193203Y15591957D01*
X67381139Y15591957D01*
X67383335Y15577793D01*
X67396522Y15574000D01*
X68567885Y15574000D01*
X68583124Y15578475D01*
X68584329Y15579865D01*
X68586000Y15587548D01*
X68586000Y15592115D01*
X69094000Y15592115D01*
X69098475Y15576876D01*
X69099865Y15575671D01*
X69107548Y15574000D01*
X70281192Y15574000D01*
X70294723Y15577973D01*
X70296248Y15588580D01*
X70271523Y15706421D01*
X70268463Y15716617D01*
X70187737Y15921029D01*
X70183006Y15930561D01*
X70068984Y16118462D01*
X70062720Y16127052D01*
X69918673Y16293052D01*
X69911042Y16300472D01*
X69741089Y16439826D01*
X69732322Y16445850D01*
X69541318Y16554576D01*
X69531654Y16559041D01*
X69325059Y16634031D01*
X69314792Y16636802D01*
X69111826Y16673504D01*
X69098586Y16672085D01*
X69094000Y16657450D01*
X69094000Y15592115D01*
X68586000Y15592115D01*
X68586000Y16653849D01*
X68581690Y16668527D01*
X68569807Y16670590D01*
X68490675Y16663876D01*
X68480203Y16662086D01*
X68267465Y16606870D01*
X68257425Y16603335D01*
X68057030Y16513063D01*
X68047744Y16507894D01*
X67865425Y16385150D01*
X67857130Y16378481D01*
X67698100Y16226772D01*
X67691059Y16218814D01*
X67559859Y16042475D01*
X67554255Y16033438D01*
X67454643Y15837516D01*
X67450643Y15827665D01*
X67385466Y15617760D01*
X67383183Y15607376D01*
X67381139Y15591957D01*
X65193203Y15591957D01*
X65192721Y15593618D01*
X65181018Y15633898D01*
X65176984Y15640720D01*
X65176981Y15640726D01*
X65170706Y15651337D01*
X65162010Y15669087D01*
X65157472Y15680549D01*
X65157469Y15680554D01*
X65154552Y15687922D01*
X65128573Y15723680D01*
X65122057Y15733598D01*
X65103575Y15764848D01*
X65099542Y15771668D01*
X65085218Y15785992D01*
X65072376Y15801027D01*
X65060472Y15817412D01*
X65026406Y15845594D01*
X65017627Y15853583D01*
X64393957Y16477253D01*
X64386417Y16485539D01*
X64382305Y16492018D01*
X64332653Y16538644D01*
X64329812Y16541398D01*
X64310075Y16561135D01*
X64306878Y16563615D01*
X64297856Y16571320D01*
X64271405Y16596159D01*
X64265626Y16601586D01*
X64258680Y16605405D01*
X64258677Y16605407D01*
X64247871Y16611348D01*
X64231352Y16622199D01*
X64225139Y16627018D01*
X64215346Y16634614D01*
X64208077Y16637759D01*
X64208073Y16637762D01*
X64174768Y16652174D01*
X64164118Y16657391D01*
X64125365Y16678695D01*
X64105742Y16683733D01*
X64087039Y16690137D01*
X64075725Y16695033D01*
X64075724Y16695033D01*
X64068450Y16698181D01*
X64060627Y16699420D01*
X64060617Y16699423D01*
X64024781Y16705099D01*
X64013161Y16707505D01*
X63978016Y16716528D01*
X63978015Y16716528D01*
X63970335Y16718500D01*
X63950081Y16718500D01*
X63930370Y16720051D01*
X63918191Y16721980D01*
X63910362Y16723220D01*
X63902470Y16722474D01*
X63866344Y16719059D01*
X63854486Y16718500D01*
X62445416Y16718500D01*
X62377295Y16738502D01*
X62330802Y16792158D01*
X62320106Y16857671D01*
X62322814Y16883436D01*
X62323504Y16890000D01*
X62314253Y16978022D01*
X62304232Y17073365D01*
X62304232Y17073367D01*
X62303542Y17079928D01*
X62244527Y17261556D01*
X62149040Y17426944D01*
X62144192Y17432329D01*
X62025675Y17563955D01*
X62025674Y17563956D01*
X62021253Y17568866D01*
X61866752Y17681118D01*
X61860724Y17683802D01*
X61860722Y17683803D01*
X61698319Y17756109D01*
X61698318Y17756109D01*
X61692288Y17758794D01*
X61598887Y17778647D01*
X61511944Y17797128D01*
X61511939Y17797128D01*
X61505487Y17798500D01*
X61449595Y17798500D01*
X61381474Y17818502D01*
X61360500Y17835405D01*
X50543652Y28652253D01*
X50536112Y28660539D01*
X50532000Y28667018D01*
X50482348Y28713644D01*
X50479507Y28716398D01*
X50459770Y28736135D01*
X50456573Y28738615D01*
X50447551Y28746320D01*
X50421097Y28771162D01*
X50415321Y28776586D01*
X50408378Y28780403D01*
X50404026Y28783565D01*
X50360673Y28839788D01*
X50354598Y28910524D01*
X50387730Y28973315D01*
X50449551Y29008226D01*
X50478088Y29011500D01*
X73265500Y29011500D01*
X73333621Y28991498D01*
X73380114Y28937842D01*
X73391500Y28885500D01*
X73391500Y634500D01*
X73371498Y566379D01*
X73317842Y519886D01*
X73265500Y508500D01*
X634500Y508500D01*
X566379Y528502D01*
X519886Y582158D01*
X508500Y634500D01*
X508500Y18534396D01*
X3682787Y18534396D01*
X3692567Y18323101D01*
X3742125Y18117466D01*
X3744607Y18112008D01*
X3744608Y18112004D01*
X3788053Y18016454D01*
X3829674Y17924913D01*
X3918897Y17799132D01*
X3947460Y17758866D01*
X3952054Y17752389D01*
X3956381Y17748247D01*
X3956386Y17748241D01*
X4047317Y17661194D01*
X4082694Y17599639D01*
X4079175Y17528730D01*
X4037879Y17470979D01*
X4026496Y17463035D01*
X3970652Y17428478D01*
X3845695Y17303303D01*
X3841855Y17297073D01*
X3841854Y17297072D01*
X3816088Y17255271D01*
X3752885Y17152738D01*
X3697203Y16984861D01*
X3686500Y16880400D01*
X3686500Y16079600D01*
X3686837Y16076354D01*
X3686837Y16076350D01*
X3695406Y15993769D01*
X3697474Y15973834D01*
X3699655Y15967298D01*
X3699655Y15967296D01*
X3711911Y15930561D01*
X3753450Y15806054D01*
X3846522Y15655652D01*
X3971697Y15530695D01*
X3977927Y15526855D01*
X3977928Y15526854D01*
X4115090Y15442306D01*
X4122262Y15437885D01*
X4145839Y15430065D01*
X4283611Y15384368D01*
X4283613Y15384368D01*
X4290139Y15382203D01*
X4296975Y15381503D01*
X4296978Y15381502D01*
X4340031Y15377091D01*
X4394600Y15371500D01*
X5745400Y15371500D01*
X5748646Y15371837D01*
X5748650Y15371837D01*
X5844308Y15381762D01*
X5844312Y15381763D01*
X5851166Y15382474D01*
X5857702Y15384655D01*
X5857704Y15384655D01*
X6004109Y15433500D01*
X6018946Y15438450D01*
X6169348Y15531522D01*
X6294305Y15656697D01*
X6309008Y15680549D01*
X6383275Y15801032D01*
X6383276Y15801034D01*
X6387115Y15807262D01*
X6424850Y15921029D01*
X6440632Y15968611D01*
X6440632Y15968613D01*
X6442797Y15975139D01*
X6443920Y15986093D01*
X6449696Y16042475D01*
X6453500Y16079600D01*
X6453500Y16880400D01*
X6451823Y16896565D01*
X6443238Y16979308D01*
X6443237Y16979312D01*
X6442526Y16986166D01*
X6411245Y17079928D01*
X6388868Y17146998D01*
X6386550Y17153946D01*
X6293478Y17304348D01*
X6168303Y17429305D01*
X6116764Y17461075D01*
X6069271Y17513846D01*
X6057847Y17583918D01*
X6086121Y17649042D01*
X6105045Y17667418D01*
X6112920Y17673604D01*
X6116852Y17678135D01*
X6116855Y17678138D01*
X6247621Y17828833D01*
X6251552Y17833363D01*
X6254552Y17838549D01*
X6254555Y17838553D01*
X6354467Y18011258D01*
X6357473Y18016454D01*
X6426861Y18216271D01*
X6435537Y18276109D01*
X6456352Y18419664D01*
X6456352Y18419667D01*
X6457213Y18425604D01*
X6447433Y18636899D01*
X6410876Y18788587D01*
X6399281Y18836701D01*
X6399280Y18836703D01*
X6397875Y18842534D01*
X6354525Y18937878D01*
X6312806Y19029632D01*
X6310326Y19035087D01*
X6187946Y19207611D01*
X6035150Y19353881D01*
X6030119Y19357130D01*
X6030112Y19357135D01*
X6002393Y19375033D01*
X5956016Y19428789D01*
X5946063Y19499085D01*
X5975696Y19563602D01*
X5992909Y19579970D01*
X6107857Y19670262D01*
X6116506Y19678499D01*
X6247212Y19829123D01*
X6254147Y19838847D01*
X6354010Y20011467D01*
X6358984Y20022331D01*
X6424407Y20210727D01*
X6424648Y20211716D01*
X6423180Y20222008D01*
X6409615Y20226000D01*
X3734598Y20226000D01*
X3721067Y20222027D01*
X3719712Y20212601D01*
X3741194Y20123463D01*
X3745083Y20112168D01*
X3827629Y19930618D01*
X3833576Y19920276D01*
X3948968Y19757603D01*
X3956761Y19748575D01*
X4100831Y19610658D01*
X4110200Y19603259D01*
X4137577Y19585582D01*
X4183955Y19531828D01*
X4193909Y19461532D01*
X4164278Y19397015D01*
X4147063Y19380644D01*
X4027080Y19286396D01*
X4023148Y19281865D01*
X4023145Y19281862D01*
X3954474Y19202725D01*
X3888448Y19126637D01*
X3885448Y19121451D01*
X3885445Y19121447D01*
X3838312Y19039974D01*
X3782527Y18943546D01*
X3713139Y18743729D01*
X3712278Y18737794D01*
X3712278Y18737792D01*
X3693742Y18609949D01*
X3682787Y18534396D01*
X508500Y18534396D01*
X508500Y20748284D01*
X3715352Y20748284D01*
X3716820Y20737992D01*
X3730385Y20734000D01*
X4797885Y20734000D01*
X4813124Y20738475D01*
X4814329Y20739865D01*
X4816000Y20747548D01*
X4816000Y20752115D01*
X5324000Y20752115D01*
X5328475Y20736876D01*
X5329865Y20735671D01*
X5337548Y20734000D01*
X6405402Y20734000D01*
X6418933Y20737973D01*
X6420288Y20747399D01*
X6398806Y20836537D01*
X6394917Y20847832D01*
X6312371Y21029382D01*
X6306424Y21039724D01*
X6191032Y21202397D01*
X6183239Y21211425D01*
X6039169Y21349342D01*
X6029804Y21356738D01*
X5862259Y21464921D01*
X5851655Y21470417D01*
X5666688Y21544961D01*
X5655230Y21548355D01*
X5458072Y21586857D01*
X5449209Y21587934D01*
X5446500Y21588000D01*
X5342115Y21588000D01*
X5326876Y21583525D01*
X5325671Y21582135D01*
X5324000Y21574452D01*
X5324000Y20752115D01*
X4816000Y20752115D01*
X4816000Y21569885D01*
X4811525Y21585124D01*
X4810135Y21586329D01*
X4802452Y21588000D01*
X4745168Y21588000D01*
X4739192Y21587715D01*
X4590506Y21573529D01*
X4578772Y21571270D01*
X4387401Y21515128D01*
X4376325Y21510698D01*
X4199022Y21419381D01*
X4188976Y21412931D01*
X4032143Y21289738D01*
X4023494Y21281501D01*
X3892788Y21130877D01*
X3885853Y21121153D01*
X3785990Y20948533D01*
X3781016Y20937669D01*
X3715593Y20749273D01*
X3715352Y20748284D01*
X508500Y20748284D01*
X508500Y28885500D01*
X528502Y28953621D01*
X582158Y29000114D01*
X634500Y29011500D01*
X28136455Y29011500D01*
X28204576Y28991498D01*
G37*
%TD.AperFunction*%
%TA.AperFunction,Conductor*%
G36*
X47143430Y26256498D02*
G01*
X47164404Y26239595D01*
X60820794Y12583205D01*
X60854820Y12520893D01*
X60849755Y12450078D01*
X60807208Y12393242D01*
X60801645Y12389531D01*
X60799257Y12387679D01*
X60792433Y12383643D01*
X60787891Y12379101D01*
X60722428Y12353397D01*
X60652805Y12367296D01*
X60617649Y12394593D01*
X60510175Y12513955D01*
X60510174Y12513956D01*
X60505753Y12518866D01*
X60351252Y12631118D01*
X60345224Y12633802D01*
X60345222Y12633803D01*
X60182816Y12706110D01*
X60182817Y12706110D01*
X60176788Y12708794D01*
X60166449Y12710992D01*
X60164450Y12712077D01*
X60164053Y12712206D01*
X60164077Y12712280D01*
X60103554Y12745142D01*
X54979334Y17869363D01*
X49836444Y23012253D01*
X49828904Y23020539D01*
X49824792Y23027018D01*
X49775140Y23073644D01*
X49772299Y23076398D01*
X49752562Y23096135D01*
X49749365Y23098615D01*
X49740343Y23106320D01*
X49708113Y23136586D01*
X49701167Y23140405D01*
X49701164Y23140407D01*
X49690358Y23146348D01*
X49673839Y23157199D01*
X49673375Y23157559D01*
X49657833Y23169614D01*
X49650564Y23172759D01*
X49650560Y23172762D01*
X49617255Y23187174D01*
X49606605Y23192391D01*
X49567852Y23213695D01*
X49548229Y23218733D01*
X49529526Y23225137D01*
X49518212Y23230033D01*
X49518211Y23230033D01*
X49510937Y23233181D01*
X49503114Y23234420D01*
X49503104Y23234423D01*
X49467268Y23240099D01*
X49455648Y23242505D01*
X49420503Y23251528D01*
X49420502Y23251528D01*
X49412822Y23253500D01*
X49392568Y23253500D01*
X49372857Y23255051D01*
X49360678Y23256980D01*
X49352849Y23258220D01*
X49323578Y23255453D01*
X49308831Y23254059D01*
X49296973Y23253500D01*
X35297660Y23253500D01*
X35229539Y23273502D01*
X35183046Y23327158D01*
X35172942Y23397432D01*
X35202436Y23462012D01*
X35224760Y23482269D01*
X35262390Y23508962D01*
X35271425Y23516761D01*
X35409342Y23660831D01*
X35416738Y23670196D01*
X35524921Y23837741D01*
X35530417Y23848345D01*
X35604961Y24033312D01*
X35608355Y24044770D01*
X35646857Y24241928D01*
X35647934Y24250791D01*
X35648000Y24253500D01*
X35648000Y24357885D01*
X35643525Y24373124D01*
X35642135Y24374329D01*
X35634452Y24376000D01*
X34412000Y24376000D01*
X34343879Y24396002D01*
X34297386Y24449658D01*
X34286000Y24502000D01*
X34286000Y24902115D01*
X34794000Y24902115D01*
X34798475Y24886876D01*
X34799865Y24885671D01*
X34807548Y24884000D01*
X35629885Y24884000D01*
X35645124Y24888475D01*
X35646329Y24889865D01*
X35648000Y24897548D01*
X35648000Y24954832D01*
X35647715Y24960808D01*
X35633529Y25109494D01*
X35631270Y25121228D01*
X35575128Y25312599D01*
X35570698Y25323675D01*
X35479381Y25500978D01*
X35472931Y25511024D01*
X35349738Y25667857D01*
X35341501Y25676506D01*
X35190877Y25807212D01*
X35181153Y25814147D01*
X35008533Y25914010D01*
X34997669Y25918984D01*
X34809273Y25984407D01*
X34808284Y25984648D01*
X34797992Y25983180D01*
X34794000Y25969615D01*
X34794000Y24902115D01*
X34286000Y24902115D01*
X34286000Y25965402D01*
X34282027Y25978933D01*
X34272601Y25980288D01*
X34183463Y25958806D01*
X34172168Y25954917D01*
X33990618Y25872371D01*
X33980276Y25866424D01*
X33817603Y25751032D01*
X33808575Y25743239D01*
X33670658Y25599169D01*
X33663259Y25589800D01*
X33645582Y25562423D01*
X33591828Y25516045D01*
X33521532Y25506091D01*
X33457015Y25535722D01*
X33440644Y25552937D01*
X33433193Y25562423D01*
X33346396Y25672920D01*
X33341865Y25676852D01*
X33341862Y25676855D01*
X33191167Y25807621D01*
X33186637Y25811552D01*
X33181451Y25814552D01*
X33181447Y25814555D01*
X33008742Y25914467D01*
X33003546Y25917473D01*
X32803729Y25986861D01*
X32797794Y25987722D01*
X32797792Y25987722D01*
X32600336Y26016352D01*
X32600333Y26016352D01*
X32594396Y26017213D01*
X32383101Y26007433D01*
X32270466Y25980288D01*
X32183299Y25959281D01*
X32183297Y25959280D01*
X32177466Y25957875D01*
X32172008Y25955393D01*
X32172004Y25955392D01*
X32080990Y25914010D01*
X31984913Y25870326D01*
X31812389Y25747946D01*
X31808247Y25743619D01*
X31808241Y25743614D01*
X31721194Y25652683D01*
X31659639Y25617306D01*
X31588730Y25620825D01*
X31530979Y25662121D01*
X31523032Y25673509D01*
X31488478Y25729348D01*
X31363303Y25854305D01*
X31357072Y25858146D01*
X31218968Y25943275D01*
X31218966Y25943276D01*
X31212738Y25947115D01*
X31104005Y25983180D01*
X31051389Y26000632D01*
X31051387Y26000632D01*
X31044861Y26002797D01*
X31038025Y26003497D01*
X31038022Y26003498D01*
X30994969Y26007909D01*
X30940400Y26013500D01*
X30139600Y26013500D01*
X30136354Y26013163D01*
X30136350Y26013163D01*
X30040692Y26003238D01*
X30040688Y26003237D01*
X30033834Y26002526D01*
X30027298Y26000345D01*
X30027296Y26000345D01*
X29963117Y25978933D01*
X29866054Y25946550D01*
X29715652Y25853478D01*
X29590695Y25728303D01*
X29586855Y25722073D01*
X29586854Y25722072D01*
X29549900Y25662121D01*
X29497885Y25577738D01*
X29475757Y25511024D01*
X29459093Y25460783D01*
X29418663Y25402423D01*
X29353098Y25375186D01*
X29283217Y25387719D01*
X29231205Y25436044D01*
X29213500Y25500450D01*
X29213500Y26045406D01*
X29233502Y26113527D01*
X29250405Y26134501D01*
X29355499Y26239595D01*
X29417811Y26273621D01*
X29444594Y26276500D01*
X47075309Y26276500D01*
X47143430Y26256498D01*
G37*
%TD.AperFunction*%
%TD*%
M02*
